<?xml version="1.0" standalone="no"?>
<!DOCTYPE svg PUBLIC "-//W3C//DTD SVG 20010904//EN"
 "http://www.w3.org/TR/2001/REC-SVG-20010904/DTD/svg10.dtd">
<svg version="1.0" xmlns="http://www.w3.org/2000/svg"
 width="990.000000pt" height="990.000000pt" viewBox="0 0 990.000000 990.000000"
 preserveAspectRatio="xMidYMid meet">
<metadata>
Created by potrace 1.14, written by Peter Selinger 2001-2017
</metadata>
<g transform="translate(0.000000,990.000000) scale(0.100000,-0.100000)"
fill="#000000" stroke="none">
<path d="M4439 9896 c-2 -2 -50 -7 -106 -10 -56 -4 -112 -9 -125 -11 -25 -4
-125 -16 -174 -20 -17 -1 -40 -5 -51 -9 -11 -4 -40 -9 -64 -11 -24 -3 -54 -7
-66 -10 -13 -3 -33 -7 -45 -10 -13 -3 -36 -7 -53 -10 -16 -2 -50 -9 -75 -16
-25 -6 -54 -13 -65 -15 -11 -2 -31 -6 -45 -9 -14 -4 -36 -8 -49 -11 -14 -3
-28 -7 -33 -10 -4 -3 -16 -7 -25 -9 -109 -22 -465 -145 -618 -214 -22 -10 -61
-26 -87 -37 -27 -10 -48 -22 -48 -26 0 -5 -7 -8 -15 -8 -15 0 -242 -115 -306
-156 -21 -13 -43 -24 -49 -24 -5 0 -10 -4 -10 -10 0 -5 -6 -10 -12 -10 -12 0
-169 -96 -195 -119 -7 -6 -15 -11 -19 -11 -4 0 -21 -11 -38 -23 -17 -13 -62
-46 -101 -72 -38 -27 -75 -56 -82 -64 -7 -9 -13 -13 -13 -8 0 4 -8 -1 -19 -10
-10 -10 -50 -43 -89 -73 -39 -30 -71 -60 -71 -67 -1 -11 36 -82 49 -93 3 -3
12 -18 20 -35 8 -16 17 -32 20 -35 5 -5 17 -25 57 -99 14 -25 32 -53 39 -62 8
-8 14 -18 14 -22 0 -3 22 -41 48 -84 26 -43 51 -85 55 -93 4 -8 16 -28 27 -45
10 -16 29 -49 41 -71 l21 -42 -42 -41 c-23 -22 -46 -41 -50 -41 -4 0 -21 16
-36 36 -32 40 -53 65 -92 109 -15 17 -47 55 -71 85 -48 59 -76 91 -103 118
-10 9 -18 22 -18 29 0 7 -4 13 -9 13 -4 0 -29 26 -54 58 -25 31 -63 76 -84
100 l-39 43 -101 -103 c-125 -127 -186 -194 -229 -250 -11 -15 -24 -25 -27
-21 -4 3 -7 1 -7 -6 0 -6 -9 -22 -21 -34 -11 -12 -39 -47 -62 -77 -23 -30 -52
-66 -64 -80 -13 -14 -23 -28 -23 -31 0 -3 -8 -15 -18 -27 -45 -54 -51 -62 -45
-62 3 0 -3 -10 -14 -22 -21 -24 -134 -192 -146 -218 -4 -8 -21 -35 -37 -60
-16 -25 -35 -57 -41 -72 -6 -16 -15 -28 -20 -28 -5 0 -9 -6 -9 -14 0 -8 -7
-22 -16 -30 -8 -9 -13 -16 -10 -16 4 0 -5 -18 -19 -40 -14 -22 -25 -46 -25
-54 0 -8 -4 -16 -9 -18 -12 -4 -134 -263 -128 -271 1 -2 -5 -14 -14 -27 -14
-22 -68 -150 -74 -175 -1 -5 -7 -23 -14 -40 -6 -16 -19 -50 -27 -75 -9 -25
-20 -54 -24 -65 -25 -67 -65 -203 -57 -198 5 3 2 -8 -6 -24 -15 -28 -33 -101
-29 -115 1 -5 -3 -8 -9 -8 -5 0 -7 -4 -4 -10 3 -5 3 -15 -1 -22 -4 -7 -9 -21
-11 -33 -3 -25 -11 -60 -13 -60 -2 0 -7 -24 -15 -75 -4 -24 -8 -47 -11 -51 -2
-4 -6 -31 -10 -60 -3 -30 -8 -57 -10 -61 -2 -3 -7 -27 -9 -51 -3 -25 -8 -55
-10 -68 -3 -13 -7 -53 -11 -89 -3 -36 -8 -74 -10 -85 -26 -127 -25 -766 1
-945 3 -19 7 -57 10 -85 5 -51 12 -106 21 -160 3 -16 7 -43 9 -60 2 -16 8 -47
13 -67 6 -20 7 -39 4 -42 -2 -3 0 -12 6 -19 7 -8 9 -16 7 -19 -3 -3 -1 -16 4
-30 5 -14 12 -42 15 -64 4 -21 9 -47 12 -56 3 -9 7 -26 9 -37 3 -12 7 -30 10
-41 3 -11 7 -29 10 -40 3 -11 7 -28 9 -38 14 -59 84 -273 117 -362 22 -58 42
-112 44 -121 2 -9 8 -25 13 -35 15 -28 47 -104 63 -146 7 -21 17 -38 21 -38 4
0 7 -3 6 -7 -2 -7 10 -36 47 -115 8 -18 19 -40 24 -48 11 -20 27 -51 74 -140
22 -41 48 -86 57 -100 9 -14 20 -32 23 -40 4 -8 15 -27 25 -41 9 -15 31 -50
47 -78 17 -28 33 -51 38 -51 4 0 7 -5 7 -10 0 -6 17 -34 37 -63 135 -192 175
-245 298 -390 120 -143 397 -427 416 -427 6 0 7 -5 4 -10 -3 -5 0 -10 7 -11 7
0 49 -43 93 -96 166 -198 369 -404 526 -535 24 -20 54 -44 66 -55 11 -10 35
-29 53 -43 17 -14 42 -35 55 -47 13 -13 28 -23 33 -23 5 0 16 -7 23 -16 8 -9
30 -27 49 -40 19 -13 63 -44 98 -69 34 -25 67 -45 72 -45 6 0 10 -5 10 -10 0
-6 8 -14 18 -17 9 -4 42 -23 72 -43 30 -20 74 -47 98 -60 23 -13 42 -28 42
-32 0 -5 4 -7 9 -3 5 3 15 0 23 -7 37 -36 392 -210 578 -285 137 -56 405 -150
444 -156 11 -2 28 -7 36 -10 8 -4 35 -11 60 -17 25 -6 50 -12 55 -13 6 -1 16
-6 23 -11 7 -4 16 -6 19 -3 3 3 16 1 30 -4 14 -5 42 -12 62 -15 20 -3 45 -8
56 -11 25 -8 30 -9 85 -18 24 -4 47 -8 50 -10 3 -1 28 -6 55 -10 28 -4 59 -9
70 -10 11 -2 43 -6 70 -9 28 -4 64 -9 80 -13 17 -3 48 -7 70 -9 22 -1 87 -6
145 -11 193 -15 685 -8 822 12 41 6 189 25 232 30 17 2 40 6 51 8 11 3 40 8
65 12 49 8 68 12 103 21 12 3 37 6 55 7 17 1 32 6 32 10 0 5 6 7 14 4 8 -3 17
-3 20 1 4 3 12 7 19 8 28 5 64 13 95 23 18 5 35 10 37 10 25 1 334 99 435 138
214 81 459 194 635 293 33 18 77 43 98 54 20 11 37 23 37 28 0 4 5 8 12 8 13
0 201 120 206 132 2 4 10 8 18 8 8 0 14 5 14 10 0 6 4 10 10 10 5 0 67 43 136
95 131 100 133 101 175 138 14 12 47 40 74 62 68 56 390 376 456 454 29 36 64
75 76 88 13 13 23 28 23 33 0 4 3 10 8 12 4 2 25 26 47 53 22 28 43 51 48 53
4 2 7 9 7 16 0 7 11 23 25 36 14 13 25 29 25 36 0 7 4 14 8 16 5 2 24 25 43
52 19 27 46 66 62 88 15 21 27 40 27 42 0 2 23 37 50 79 27 42 50 80 50 86 0
5 6 16 13 23 25 26 197 352 197 375 0 7 4 13 8 13 6 0 30 46 36 70 1 5 77 189
101 245 16 37 95 274 123 370 32 106 57 206 68 275 3 19 8 38 11 42 5 9 12 40
18 88 6 41 12 75 19 98 3 9 8 41 11 71 4 30 8 61 10 70 1 9 6 43 10 76 4 33 8
71 10 85 26 211 26 834 0 971 -2 10 -6 44 -10 76 -3 32 -10 83 -15 113 -5 30
-12 75 -16 100 -9 69 -11 77 -45 230 -11 52 -23 106 -26 120 -2 14 -7 32 -10
40 -4 8 -5 21 -4 28 1 6 -2 12 -6 12 -5 0 -9 8 -10 18 -4 62 -115 391 -196
582 -6 14 -11 27 -12 30 -32 101 -306 622 -338 642 -7 4 -9 8 -5 8 8 0 -115
184 -179 270 -43 56 -143 150 -160 150 -7 0 -13 4 -13 9 0 4 -30 23 -67 42
-69 34 -93 52 -106 79 -13 27 -154 237 -194 288 -48 63 -160 162 -182 162 -6
0 -11 5 -11 10 0 6 -7 10 -15 10 -8 0 -15 5 -15 10 0 6 -8 10 -18 10 -10 0
-22 4 -27 9 -13 12 -125 48 -178 57 -74 13 -229 8 -297 -10 -36 -9 -94 -30
-130 -47 -36 -17 -66 -30 -67 -30 -2 1 -11 -6 -20 -14 -10 -8 -49 -42 -88 -74
-38 -33 -92 -80 -120 -105 -27 -26 -81 -74 -119 -109 -102 -92 -125 -114 -189
-174 -33 -30 -60 -53 -62 -51 -1 2 18 46 44 99 25 52 47 99 49 105 2 5 15 32
29 59 13 28 25 52 25 55 1 8 42 94 48 100 3 3 6 10 7 15 1 6 21 53 46 105 78
167 97 242 90 356 -5 74 -37 185 -69 236 -13 21 -22 38 -20 38 6 0 -41 55 -80
94 -43 42 -72 66 -83 66 -5 0 -11 4 -13 8 -4 10 -93 52 -111 52 -7 0 -17 4
-23 9 -5 4 -34 16 -64 27 -70 23 -73 26 -77 71 -4 43 -27 120 -51 173 -30 65
-121 180 -142 180 -5 0 -10 4 -10 9 0 8 -26 26 -108 73 -37 21 -431 154 -477
162 -16 2 -31 5 -32 6 -2 2 -6 3 -10 5 -5 1 -20 5 -34 9 -14 4 -34 9 -45 11
-10 2 -19 4 -19 5 0 1 -9 3 -20 5 -26 5 -60 13 -60 15 0 1 -13 3 -30 5 -16 2
-41 6 -55 10 -14 3 -34 8 -45 10 -11 2 -29 5 -40 8 -11 2 -42 8 -68 11 -27 4
-58 9 -70 12 -27 5 -80 12 -137 19 -25 2 -67 7 -95 10 -27 4 -68 8 -90 11 -49
5 -631 14 -636 10z m449 -182 c196 -8 285 -17 512 -49 64 -10 252 -48 344 -71
91 -22 91 -22 91 -24 0 -2 16 -6 50 -12 31 -7 108 -29 130 -38 19 -8 60 -22
78 -26 4 -1 9 -3 12 -4 3 -1 10 -4 15 -5 6 -1 12 -4 15 -5 3 -1 8 -3 13 -4 26
-6 89 -30 100 -39 6 -5 12 -7 12 -3 0 17 130 -61 168 -101 39 -41 81 -109 96
-159 6 -21 6 -21 -46 -9 -29 8 -78 20 -109 29 -30 8 -66 16 -80 18 -13 2 -30
7 -36 11 -7 5 -17 5 -23 2 -5 -3 -10 -2 -10 3 0 5 -11 7 -25 4 -14 -2 -25 0
-25 6 0 6 -8 9 -17 8 -10 -2 -34 1 -53 7 -19 5 -44 10 -55 12 -101 12 -213 28
-225 32 -8 3 -33 7 -55 8 -22 2 -69 6 -105 9 -242 24 -657 25 -860 2 -19 -3
-62 -7 -95 -10 -33 -4 -71 -8 -85 -10 -14 -2 -47 -7 -75 -11 -27 -4 -61 -9
-75 -12 -14 -2 -36 -6 -50 -8 -14 -2 -37 -6 -51 -9 -14 -3 -41 -8 -60 -10 -19
-3 -35 -6 -36 -7 -2 -1 -7 -3 -13 -4 -5 -1 -11 -3 -12 -5 -2 -1 -12 -3 -23 -5
-37 -5 -79 -15 -135 -30 -30 -9 -64 -17 -75 -19 -39 -6 -362 -109 -435 -139
-14 -6 -28 -11 -32 -12 -5 -2 -10 -4 -13 -5 -3 -1 -8 -3 -12 -5 -12 -3 -58
-22 -106 -44 -23 -11 -55 -23 -70 -26 -15 -4 -27 -11 -27 -16 0 -5 -9 -9 -20
-9 -11 0 -20 -5 -20 -12 0 -6 -3 -9 -6 -5 -8 8 -247 -113 -424 -214 -14 -8
-27 -17 -30 -20 -3 -3 -20 -14 -38 -23 -43 -22 -308 -201 -322 -217 -3 -3 -12
-10 -21 -15 -21 -12 -83 -60 -130 -101 -20 -18 -41 -33 -47 -33 -5 0 -12 -7
-16 -15 -13 -35 -25 -19 -164 218 -29 48 -52 91 -52 96 0 5 -3 11 -8 13 -7 3
-102 163 -102 172 0 2 24 21 53 42 66 49 66 49 103 79 18 14 36 25 42 25 6 0
12 4 14 9 3 7 119 86 173 117 11 6 51 30 88 53 37 23 83 49 102 58 19 9 35 20
35 25 0 4 9 8 20 8 11 0 20 5 20 12 0 6 3 8 7 5 3 -4 12 -2 19 4 20 17 127 69
141 69 7 0 13 5 13 10 0 6 4 10 10 10 8 0 56 20 235 100 64 28 364 133 415
145 8 2 49 13 90 25 41 12 86 23 100 26 14 3 41 9 60 14 19 5 47 11 63 14 15
3 35 7 45 10 9 3 31 8 47 11 17 2 55 9 85 15 67 11 101 17 160 25 25 3 56 8
70 10 26 4 124 14 195 21 22 2 130 6 239 9 110 3 202 7 204 10 3 2 9 2 14 -1
5 -4 53 -8 106 -10z m-3363 -1406 c22 -28 48 -60 58 -72 11 -11 33 -38 50 -60
18 -21 46 -53 62 -72 17 -18 40 -46 52 -61 12 -15 36 -43 52 -61 17 -18 31
-37 31 -43 0 -5 4 -9 9 -9 5 0 11 -6 14 -13 5 -13 -15 -38 -124 -155 -27 -29
-49 -57 -49 -62 0 -4 -4 -10 -9 -12 -14 -5 -199 -239 -251 -318 -8 -12 -20
-28 -25 -34 -6 -6 -26 -36 -45 -66 -19 -30 -40 -61 -47 -68 -6 -6 -15 -21 -18
-32 -3 -11 -11 -20 -16 -20 -6 0 -7 -4 -4 -10 3 -5 2 -10 -3 -10 -5 0 -17 -18
-27 -40 -10 -22 -21 -40 -24 -40 -3 0 -12 -15 -20 -32 -8 -18 -17 -35 -20 -38
-16 -14 -182 -340 -173 -340 4 0 2 -4 -3 -8 -10 -7 -36 -57 -41 -77 -1 -5 -13
-35 -27 -65 -61 -134 -159 -414 -149 -425 3 -3 0 -5 -7 -5 -7 0 -11 -6 -8 -12
2 -7 -1 -22 -6 -33 -11 -20 -13 -25 -19 -60 -2 -11 -6 -24 -9 -30 -5 -8 -27
-89 -34 -125 -1 -3 -4 -18 -8 -35 -17 -70 -19 -81 -19 -97 1 -10 -3 -18 -8
-18 -4 0 -8 -10 -8 -22 0 -22 -5 -54 -16 -104 -7 -31 -18 -96 -20 -119 -1 -11
-6 -38 -10 -60 -4 -22 -9 -58 -11 -80 -11 -109 -17 -163 -20 -190 -21 -180
-21 -670 0 -820 2 -16 9 -75 15 -130 11 -100 15 -126 26 -187 3 -18 7 -44 9
-58 2 -14 7 -41 11 -60 3 -19 8 -44 9 -55 2 -11 4 -20 5 -20 1 0 3 -9 5 -20 3
-18 15 -75 29 -135 4 -14 8 -34 10 -45 2 -11 10 -40 17 -65 7 -25 13 -49 14
-55 2 -5 10 -35 19 -65 10 -30 20 -66 22 -80 3 -14 9 -29 15 -35 5 -5 9 -17 9
-26 0 -9 23 -77 51 -150 28 -74 51 -140 51 -146 1 -7 5 -13 10 -13 4 0 8 -7 8
-15 0 -15 49 -129 76 -178 9 -16 14 -30 12 -32 -5 -5 -178 257 -178 270 0 3
-15 28 -32 57 -18 29 -44 76 -58 103 -14 28 -28 52 -32 53 -5 2 -8 8 -8 13 0
6 -27 66 -60 135 -33 68 -60 127 -60 129 0 2 -11 29 -25 59 -14 30 -25 61 -25
70 0 8 -4 17 -9 20 -5 4 -17 32 -27 64 -9 31 -20 62 -24 67 -3 6 -12 30 -19
55 -7 25 -17 54 -22 65 -10 26 -23 67 -25 80 0 6 -4 17 -7 25 -3 8 -13 42 -22
75 -9 33 -17 65 -19 70 -9 31 -48 199 -52 225 -2 14 -7 36 -10 50 -3 14 -7 34
-9 45 -44 254 -62 409 -70 619 -2 65 -6 121 -9 123 -2 3 0 18 4 34 5 16 5 31
0 34 -4 3 -4 20 0 39 4 19 4 40 -1 47 -4 7 -5 17 -2 22 3 4 7 54 9 110 5 123
11 212 13 212 1 0 4 28 6 63 2 35 7 73 11 84 3 12 8 39 9 62 3 37 10 84 21
140 2 11 8 46 14 76 13 69 15 81 34 161 9 36 17 74 19 85 1 10 5 24 9 29 3 6
9 26 14 45 4 19 9 40 10 45 2 6 5 19 8 30 2 11 9 32 15 48 6 15 9 27 6 27 -2
0 4 20 15 45 11 25 19 46 19 48 -1 7 74 221 81 232 4 6 15 33 25 60 10 28 30
76 45 107 16 31 26 59 22 62 -3 3 0 6 6 6 7 0 12 9 12 20 0 11 5 20 10 20 6 0
10 5 10 10 0 15 83 184 92 188 4 2 8 8 8 14 0 5 23 48 50 95 28 47 50 87 50
89 0 5 41 65 50 74 10 10 31 45 36 63 4 9 11 17 16 17 5 0 7 4 4 9 -4 5 -3 11
1 13 10 4 63 74 63 83 0 3 4 11 10 18 22 27 60 76 121 157 66 88 98 127 137
166 12 13 22 25 22 28 0 2 18 24 40 48 23 23 60 64 83 90 23 26 47 47 52 47 6
0 28 -23 50 -51z m6473 -232 c146 -34 271 -127 364 -269 15 -23 37 -53 47 -67
26 -32 17 -43 -30 -37 -21 2 -39 1 -39 -2 0 -4 -16 -8 -35 -9 -76 -5 -271 -83
-283 -114 -2 -4 -8 -8 -13 -8 -13 0 -36 -20 -190 -162 -26 -24 -81 -74 -124
-113 -43 -38 -103 -93 -132 -121 -29 -28 -53 -49 -53 -46 0 2 -20 -17 -45 -42
-25 -25 -48 -46 -50 -46 -2 0 -21 -17 -43 -37 -22 -21 -74 -69 -116 -108 -42
-38 -94 -86 -115 -105 -49 -46 -224 -205 -274 -250 -22 -19 -53 -48 -71 -65
-17 -16 -71 -66 -121 -110 -49 -44 -101 -91 -115 -105 -23 -21 -132 -121 -229
-208 -14 -13 -68 -63 -120 -110 -131 -121 -143 -132 -147 -132 -5 0 12 44 25
67 6 10 29 59 52 108 53 116 99 214 160 343 27 57 49 105 49 107 0 1 26 58 59
126 32 68 70 149 85 180 14 31 26 61 26 67 0 7 5 12 10 12 6 0 10 6 10 14 0 8
7 27 15 43 26 50 132 278 139 300 6 19 41 53 244 238 30 28 74 68 98 90 23 22
71 65 106 97 35 31 81 73 103 93 22 20 78 71 124 114 46 42 93 85 105 96 85
83 194 146 291 170 49 11 187 12 233 1z"/>
</g>
</svg>
