<?xml version="1.0" encoding="UTF-8"?>
<svg id="Layer_1" xmlns="http://www.w3.org/2000/svg" viewBox="0 0 1610.05 572.16">
  <defs>
    <style>
      .cls-1 {
        fill: #feb6d6;
      }

      .cls-2 {
        fill: #67bf5a;
      }

      .cls-3 {
        fill: #fd93c2;
      }

      .cls-4 {
        fill: #e6e6e6;
      }
    </style>
  </defs>
  <g>
    <path class="cls-4" d="M748.99,100.7h-55.06v-54.73h179.84v54.73h-55.06v159.64h-69.72V100.7Z"/>
    <path class="cls-4" d="M892.99,45.96h69.72v214.37h-69.72V45.96Z"/>
    <path class="cls-4" d="M989.42,45.96h97.41l60.92,122.5h.65l-1.96-122.5h60.27v214.37h-87.31l-72-144.33h-.33l2.28,144.33h-59.95V45.96Z"/>
    <path class="cls-4" d="M1305.43,179.21l-81.45-133.25h87.31l38.12,76.24h.65l37.79-76.24h71.67l-82.1,133.25v81.12h-72v-81.12Z"/>
    <path class="cls-4" d="M701.1,308.57h97.41c60.27,0,92.52,25.74,92.52,78.19,0,48.54-25.74,76.24-86.33,76.24h-33.56v59.95h-70.04v-214.37ZM800.79,422.27c17.92,0,28.02-8.8,28.02-29.97,0-19.87-10.75-30.3-30.62-30.3h-27.04v60.27h29.65Z"/>
    <path class="cls-4" d="M904.39,414.77c0-67.76,46.59-109.47,118.26-109.47s118.26,41.7,118.26,109.47-45.61,111.42-118.26,111.42-118.26-41.05-118.26-111.42ZM1068.26,415.1c0-37.47-19.87-56.36-45.61-56.36s-45.61,18.9-45.61,56.36,19.87,57.67,45.61,57.67,45.61-18.9,45.61-57.67Z"/>
    <path class="cls-4" d="M1161.11,308.57h97.41l60.92,122.5h.65l-1.96-122.5h60.27v214.37h-87.31l-72-144.33h-.33l2.28,144.33h-59.95v-214.37Z"/>
    <path class="cls-4" d="M1403.83,308.57h91.22c75.91,0,115,37.79,115,106.86s-37.47,107.51-108.81,107.51h-97.41v-214.37ZM1500.91,469.51c23.13,0,39.42-15.64,39.42-54.08s-17.27-53.43-41.38-53.43h-25.09v107.51h27.04Z"/>
  </g>
  <g>
    <path class="cls-2" d="M346.77,282.22c-.76.43-1.16.64-1.16.64,0,0,47.13-.57,1.16-.64-13-.02,104.26-61.48,196.13-214.08C494.5,25.72,431.09,0,361.68,0,209.77,0,86.63,123.14,86.63,275.05s123.14,275.05,275.05,275.05,275.05-123.14,275.05-275.05c0-27.52-4.04-54.09-11.57-79.16-143.12,14.78-265.33,79.25-278.39,86.33Z"/>
    <g>
      <g id="_x3C_Radial_Repeat_x3E_">
        <path class="cls-1" d="M298.57,506.2c-21.44-139.28-149.19-118.79-149.19-118.79,0,0,8.65,129.1,149.19,118.79Z"/>
      </g>
      <g id="_x3C_Radial_Repeat_x3E_-2" data-name="_x3C_Radial_Repeat_x3E_">
        <path class="cls-1" d="M114.27,563.47c125.83-63.43,66.87-178.6,66.87-178.6,0,0-120.1,48.12-66.87,178.6Z"/>
      </g>
      <g id="_x3C_Radial_Repeat_x3E_-3" data-name="_x3C_Radial_Repeat_x3E_">
        <path class="cls-1" d="M2.85,405.88c99.21,100.07,190.52,8.41,190.52,8.41,0,0-82.88-99.35-190.52-8.41Z"/>
      </g>
      <g id="_x3C_Radial_Repeat_x3E_-4" data-name="_x3C_Radial_Repeat_x3E_">
        <path class="cls-1" d="M118.3,251.22c-64.52,125.28,50.88,183.8,50.88,183.8,0,0,68.88-109.53-50.88-183.8Z"/>
      </g>
      <g id="_x3C_Radial_Repeat_x3E_-5" data-name="_x3C_Radial_Repeat_x3E_">
        <path class="cls-1" d="M301.06,313.23c-139.09-22.65-159.08,105.18-159.08,105.18,0,0,125.45,31.66,159.08-105.18Z"/>
      </g>
    </g>
    <g>
      <g id="_x3C_Radial_Repeat_x3E_-6" data-name="_x3C_Radial_Repeat_x3E_">
        <path class="cls-3" d="M201.11,565.5c73.21-120.41-37.76-186.93-37.76-186.93,0,0-76.45,104.39,37.76,186.93Z"/>
      </g>
      <g id="_x3C_Radial_Repeat_x3E_-7" data-name="_x3C_Radial_Repeat_x3E_">
        <path class="cls-3" d="M23.18,490.73c137.14,32.42,166.11-93.68,166.11-93.68,0,0-122.9-40.45-166.11,93.68Z"/>
      </g>
      <g id="_x3C_Radial_Repeat_x3E_-8" data-name="_x3C_Radial_Repeat_x3E_">
        <path class="cls-3" d="M39.31,298.41c11.55,140.44,140.43,129.03,140.43,129.03,0,0,.49-129.38-140.43-129.03Z"/>
      </g>
      <g id="_x3C_Radial_Repeat_x3E_-9" data-name="_x3C_Radial_Repeat_x3E_">
        <path class="cls-3" d="M227.2,254.32c-130,54.38-79.32,173.43-79.32,173.43,0,0,123.2-39.52,79.32-173.43Z"/>
      </g>
      <g id="_x3C_Radial_Repeat_x3E_-10" data-name="_x3C_Radial_Repeat_x3E_">
        <path class="cls-3" d="M327.19,419.38c-91.89-106.83-189.45-21.85-189.45-21.85,0,0,75.65,104.96,189.45,21.85Z"/>
      </g>
    </g>
  </g>
</svg>