<?xml version="1.0" encoding="UTF-8"?>
<svg id="Layer_1" xmlns="http://www.w3.org/2000/svg" viewBox="0 0 1693.31 611.46">
  <defs>
    <style>
      .cls-1 {
        fill: none;
        stroke: #1a1a1a;
        stroke-linecap: round;
        stroke-linejoin: round;
        stroke-width: 19px;
      }

      .cls-2 {
        fill: #1a1a1a;
      }

      .cls-3 {
        fill: #67bf5a;
      }

      .cls-4 {
        fill: #fd93c2;
      }
    </style>
  </defs>
  <g>
    <path class="cls-2" d="M832.25,125.1h-55.06v-54.73h179.84v54.73h-55.06v159.64h-69.72V125.1Z"/>
    <path class="cls-2" d="M976.25,70.37h69.72v214.37h-69.72V70.37Z"/>
    <path class="cls-2" d="M1072.68,70.37h97.41l60.92,122.5h.65l-1.96-122.5h60.27v214.37h-87.31l-72-144.33h-.33l2.28,144.33h-59.95V70.37Z"/>
    <path class="cls-2" d="M1388.69,203.61l-81.45-133.25h87.31l38.12,76.24h.65l37.79-76.24h71.67l-82.1,133.25v81.12h-72v-81.12Z"/>
    <path class="cls-2" d="M784.36,332.97h97.41c60.27,0,92.52,25.74,92.52,78.19,0,48.54-25.74,76.23-86.33,76.23h-33.56v59.95h-70.04v-214.37ZM884.05,446.67c17.92,0,28.02-8.8,28.02-29.97,0-19.87-10.75-30.3-30.62-30.3h-27.04v60.27h29.65Z"/>
    <path class="cls-2" d="M987.65,439.18c0-67.76,46.59-109.47,118.26-109.47s118.26,41.7,118.26,109.47-45.61,111.42-118.26,111.42-118.26-41.05-118.26-111.42ZM1151.52,439.5c0-37.47-19.87-56.36-45.61-56.36s-45.61,18.9-45.61,56.36,19.87,57.67,45.61,57.67,45.61-18.9,45.61-57.67Z"/>
    <path class="cls-2" d="M1244.37,332.97h97.41l60.92,122.5h.65l-1.96-122.5h60.27v214.37h-87.31l-72-144.33h-.33l2.28,144.33h-59.95v-214.37Z"/>
    <path class="cls-2" d="M1487.09,332.97h91.22c75.91,0,115,37.79,115,106.86s-37.47,107.51-108.81,107.51h-97.41v-214.37ZM1584.17,493.91c23.13,0,39.42-15.64,39.42-54.08s-17.27-53.43-41.38-53.43h-25.09v107.51h27.04Z"/>
  </g>
  <g>
    <path class="cls-3" d="M403.03,314.26c-.76.43-3.02,1.26-3.02,1.26,0,0,40.91-27.23,1.16-.64-10.81,7.23,104.26-61.48,196.13-214.08-48.4-42.42-111.8-68.14-181.22-68.14-151.9,0-275.05,123.14-275.05,275.05s123.14,275.05,275.05,275.05,275.05-123.14,275.05-275.05c0-27.52-4.04-54.09-11.57-79.16-143.12,14.78-263.47,78.63-276.54,85.71Z"/>
    <path class="cls-1" d="M378.09,291.09c-.76.43-3.02,1.26-3.02,1.26,0,0,40.91-27.23,1.16-.64-10.81,7.23,104.26-61.48,196.13-214.08-48.4-42.42-111.8-68.14-181.22-68.14-151.9,0-275.05,123.14-275.05,275.05s123.14,275.05,275.05,275.05,275.05-123.14,275.05-275.05c0-27.52-4.04-54.09-11.57-79.16-143.12,14.78-263.47,78.63-276.54,85.71Z"/>
    <path class="cls-4" d="M374.38,465.35c-18.41-21.4-37.04-35.1-55.07-43.33,12.11-15.42,22.31-35.84,28.94-62.83-25.24-4.11-46.54-3.25-64.53.89.69-17.44-1.96-37.28-9.34-59.8-27.24,11.39-46.54,25.63-60.04,41.01-10.88-15.3-26.61-30.31-48.85-44.1-10.73,20.84-16.48,39.84-18.62,57.02-16.5-6.18-36.38-9.89-60.38-9.83,2.61,31.79,11.25,55.77,23.03,73.9-18.61,5.43-38.58,15.91-59.48,33.57,15.51,15.65,30.83,26.61,45.64,33.96-9.87,13.25-18.56,29.94-25.31,50.89,31.22,7.38,56.84,6.54,77.78.85-1.44,20.51,2.08,44.37,13.3,71.89,20.79-10.48,36.54-22.38,48.34-34.93,9.36,12.52,21.92,24.97,38.51,36.96,15.49-25.47,22.73-48.53,24.53-69.06,19.14,7.83,43.05,11.96,72.93,9.77-3.87-25.15-11.21-45.09-20.64-60.89,15.45-4.97,31.91-13.26,49.27-25.93Z"/>
    <path class="cls-2" d="M139.01,270.96c22.24,13.79,37.97,28.81,48.85,44.1,13.5-15.38,32.81-29.62,60.04-41.01,7.38,22.52,10.03,42.36,9.34,59.8,9.94-2.29,20.89-3.57,32.96-3.57,9.77,0,20.28.84,31.57,2.68-6.63,26.99-16.83,47.41-28.94,62.83,18.03,8.23,36.67,21.93,55.07,43.33-17.35,12.67-33.82,20.97-49.27,25.93,9.43,15.79,16.77,35.73,20.64,60.89-5.39.4-10.57.58-15.58.58-22.77,0-41.67-3.93-57.36-10.35-1.8,20.53-9.04,43.59-24.53,69.06-16.59-11.99-29.14-24.44-38.51-36.96-11.8,12.55-27.54,24.45-48.34,34.93-11.23-27.52-14.74-51.37-13.3-71.89-10.47,2.85-22.1,4.48-35.02,4.48s-27.14-1.64-42.76-5.33c6.75-20.95,15.44-37.64,25.31-50.89-14.81-7.36-30.13-18.31-45.64-33.96,20.9-17.66,40.87-28.14,59.48-33.57-11.78-18.12-20.41-42.11-23.03-73.9.19,0,.38,0,.57,0,23.74,0,43.44,3.7,59.81,9.83,2.13-17.19,7.88-36.18,18.62-57.02M132.72,248.24l-7.93,15.4c-7.63,14.82-13.26,29.5-16.81,43.85-14.58-3.54-30.45-5.33-47.39-5.33h-.61s-17.32.05-17.32.05l1.42,17.27c1.97,24.02,7.34,45.46,15.99,64.01-15.87,7.01-31.56,17.03-46.82,29.93l-13.24,11.18,12.2,12.3c11.04,11.14,22.52,20.55,34.28,28.13-7.05,12.07-13.02,25.64-17.82,40.55l-5.31,16.49,16.86,3.99c16.16,3.82,31.78,5.76,46.44,5.76,6.5,0,12.88-.38,19.1-1.14,1.33,18.72,6.15,38.35,14.41,58.59l6.54,16.04,15.47-7.8c15.07-7.59,28.39-16.28,39.79-25.94,8.75,9.39,18.95,18.32,30.48,26.65l14.04,10.15,9-14.81c11.52-18.94,19.44-37.82,23.68-56.34,13.79,3.54,28.7,5.32,44.54,5.32,5.43,0,11.07-.21,16.75-.63l17.28-1.27-2.64-17.12c-2.83-18.36-7.56-35.09-14.13-49.97,12.17-5.52,24.35-12.71,36.38-21.49l13.99-10.22-11.3-13.14c-13.77-16.01-28.51-28.92-43.98-38.53,9.19-15.38,16.31-33.25,21.26-53.37l4.13-16.83-17.1-2.78c-11.78-1.92-23.26-2.89-34.14-2.89-5.92,0-11.74.29-17.43.86-1.23-14.77-4.46-30.19-9.67-46.07l-5.4-16.46-15.98,6.69c-20.61,8.62-38.23,19.34-52.61,31.96-11.35-12.39-25.3-23.74-41.68-33.9l-14.72-9.13h0Z"/>
  </g>
</svg>