<?xml version="1.0" encoding="UTF-8"?>
<svg xmlns="http://www.w3.org/2000/svg" version="1.1" viewBox="0 0 1542.4 550.1">
  <defs>
    <style>
      .cls-1 {
        fill: #e6e6e6;
      }
    </style>
  </defs>
  <!-- Generator: Adobe Illustrator 28.6.0, SVG Export Plug-In . SVG Version: 1.2.0 Build 709)  -->
  <g>
    <g id="Layer_1">
      <g>
        <g>
          <path class="cls-1" d="M681.4,89.7h-55.1v-54.7h179.8v54.7h-55.1v159.6h-69.7V89.7Z"/>
          <path class="cls-1" d="M825.3,34.9h69.7v214.4h-69.7V34.9Z"/>
          <path class="cls-1" d="M921.8,34.9h97.4l60.9,122.5h.7l-2-122.5h60.3v214.4h-87.3l-72-144.3h-.3l2.3,144.3h-59.9V34.9Z"/>
          <path class="cls-1" d="M1237.8,168.2l-81.4-133.2h87.3l38.1,76.2h.7l37.8-76.2h71.7l-82.1,133.2v81.1h-72v-81.1Z"/>
          <path class="cls-1" d="M633.5,297.5h97.4c60.3,0,92.5,25.7,92.5,78.2s-25.7,76.2-86.3,76.2h-33.6v59.9h-70v-214.4ZM733.2,411.2c17.9,0,28-8.8,28-30s-10.8-30.3-30.6-30.3h-27v60.3h29.6Z"/>
          <path class="cls-1" d="M836.8,403.7c0-67.8,46.6-109.5,118.3-109.5s118.3,41.7,118.3,109.5-45.6,111.4-118.3,111.4-118.3-41-118.3-111.4ZM1000.6,404.1c0-37.5-19.9-56.4-45.6-56.4s-45.6,18.9-45.6,56.4,19.9,57.7,45.6,57.7,45.6-18.9,45.6-57.7Z"/>
          <path class="cls-1" d="M1093.5,297.5h97.4l60.9,122.5h.7l-2-122.5h60.3v214.4h-87.3l-72-144.3h-.3l2.3,144.3h-59.9v-214.4Z"/>
          <path class="cls-1" d="M1336.2,297.5h91.2c75.9,0,115,37.8,115,106.9s-37.5,107.5-108.8,107.5h-97.4v-214.4ZM1433.3,458.5c23.1,0,39.4-15.6,39.4-54.1s-17.3-53.4-41.4-53.4h-25.1v107.5h27Z"/>
        </g>
        <path class="cls-1" d="M260.1,282.2c-.8.4-1.2.6-1.2.6,0,0,47.1-.6,1.2-.6-13,0,104.3-61.5,196.1-214.1C407.9,25.7,344.5,0,275,0,123.1,0,0,123.1,0,275s123.1,275,275,275,275-123.1,275-275-4-54.1-11.6-79.2c-143.1,14.8-265.3,79.3-278.4,86.3Z"/>
      </g>
    </g>
  </g>
</svg>