<?xml version="1.0" encoding="UTF-8"?>
<svg id="Layer_1" xmlns="http://www.w3.org/2000/svg" viewBox="0 0 1557.27 550.09">
  <defs>
    <style>
      .cls-1 {
        fill: #67bf5a;
      }

      .cls-2 {
        fill: #1a1a1a;
      }
    </style>
  </defs>
  <g>
    <path class="cls-2" d="M696.21,89.66h-55.06v-54.73h179.84v54.73h-55.06v159.64h-69.72V89.66Z"/>
    <path class="cls-2" d="M840.21,34.93h69.72v214.37h-69.72V34.93Z"/>
    <path class="cls-2" d="M936.64,34.93h97.41l60.92,122.5h.65l-1.96-122.5h60.27v214.37h-87.31l-72-144.33h-.33l2.28,144.33h-59.95V34.93Z"/>
    <path class="cls-2" d="M1252.65,168.18l-81.45-133.25h87.31l38.12,76.23h.65l37.79-76.23h71.67l-82.1,133.25v81.12h-72v-81.12Z"/>
    <path class="cls-2" d="M648.32,297.54h97.41c60.27,0,92.52,25.74,92.52,78.19,0,48.54-25.74,76.24-86.33,76.24h-33.56v59.95h-70.04v-214.37ZM748.01,411.24c17.92,0,28.02-8.8,28.02-29.97,0-19.87-10.75-30.3-30.62-30.3h-27.04v60.27h29.65Z"/>
    <path class="cls-2" d="M851.61,403.74c0-67.76,46.59-109.47,118.26-109.47s118.26,41.7,118.26,109.47-45.61,111.42-118.26,111.42-118.26-41.05-118.26-111.42ZM1015.48,404.07c0-37.47-19.87-56.36-45.61-56.36s-45.61,18.9-45.61,56.36,19.87,57.67,45.61,57.67,45.61-18.9,45.61-57.67Z"/>
    <path class="cls-2" d="M1108.33,297.54h97.41l60.92,122.5h.65l-1.96-122.5h60.27v214.37h-87.31l-72-144.33h-.33l2.28,144.33h-59.95v-214.37Z"/>
    <path class="cls-2" d="M1351.05,297.54h91.22c75.91,0,115,37.79,115,106.86s-37.47,107.51-108.81,107.51h-97.41v-214.37ZM1448.13,458.48c23.13,0,39.42-15.64,39.42-54.08s-17.27-53.43-41.38-53.43h-25.09v107.51h27.04Z"/>
  </g>
  <path class="cls-1" d="M260.14,282.22c-.76.43-1.16.64-1.16.64,0,0,47.13-.57,1.16-.64-13-.02,104.26-61.48,196.13-214.08C407.87,25.72,344.46,0,275.05,0,123.14,0,0,123.14,0,275.05s123.14,275.05,275.05,275.05,275.05-123.14,275.05-275.05c0-27.52-4.04-54.09-11.57-79.16-143.12,14.78-265.33,79.25-278.39,86.33Z"/>
</svg>