<?xml version="1.0" encoding="UTF-8"?>
<svg id="Layer_1" data-name="Layer 1" xmlns="http://www.w3.org/2000/svg" viewBox="0 0 1920 1080">
  <defs>
    <style>
      .cls-1 {
        fill: #1a1a1a;
      }

      .cls-1, .cls-2 {
        stroke-width: 0px;
      }

      .cls-3 {
        fill: #70b1c6;
        stroke: #3fa9f5;
      }

      .cls-3, .cls-4 {
        stroke-miterlimit: 10;
        stroke-width: 28px;
      }

      .cls-4 {
        fill: none;
        stroke: #1a1a1a;
      }

      .cls-2 {
        fill: #67bf5a;
      }
    </style>
  </defs>
  <g>
    <path class="cls-1" d="M882.67,366.43h-55.06v-54.73h179.84v54.73h-55.06v159.64h-69.72v-159.64Z"/>
    <path class="cls-1" d="M1026.66,311.7h69.72v214.37h-69.72v-214.37Z"/>
    <path class="cls-1" d="M1123.1,311.7h97.41l60.92,122.5h.65l-1.96-122.5h60.27v214.37h-87.31l-72-144.33h-.33l2.28,144.33h-59.95v-214.37Z"/>
    <path class="cls-1" d="M1439.11,444.95l-81.45-133.25h87.31l38.12,76.23h.65l37.79-76.23h71.67l-82.1,133.25v81.12h-72v-81.12Z"/>
    <path class="cls-1" d="M834.77,574.3h97.41c60.27,0,92.52,25.74,92.52,78.19,0,48.54-25.74,76.24-86.33,76.24h-33.56v59.95h-70.04v-214.37ZM934.47,688c17.92,0,28.02-8.8,28.02-29.97,0-19.87-10.75-30.3-30.62-30.3h-27.04v60.27h29.65Z"/>
    <path class="cls-1" d="M1038.07,680.51c0-67.76,46.59-109.47,118.26-109.47s118.26,41.7,118.26,109.47-45.61,111.42-118.26,111.42-118.26-41.05-118.26-111.42ZM1201.94,680.83c0-37.47-19.87-56.36-45.61-56.36s-45.61,18.9-45.61,56.36,19.87,57.67,45.61,57.67,45.61-18.9,45.61-57.67Z"/>
    <path class="cls-1" d="M1294.79,574.3h97.41l60.92,122.5h.65l-1.96-122.5h60.27v214.37h-87.31l-72-144.33h-.33l2.28,144.33h-59.95v-214.37Z"/>
    <path class="cls-1" d="M1537.51,574.3h91.22c75.91,0,115,37.79,115,106.86s-37.47,107.51-108.81,107.51h-97.41v-214.37ZM1634.59,735.24c23.13,0,39.42-15.64,39.42-54.08s-17.27-53.43-41.38-53.43h-25.09v107.51h27.04Z"/>
  </g>
  <g>
    <path class="cls-2" d="M722.27,398.1c-13.85-19.14-41.25-22.01-58.71-6.09l-103.29,94.24-.07.09.02-.05-.04.04.07-.09,63.09-135.36c7.55-16.2-.21-35.4-16.89-41.81-105.1-40.39-228.28-7.59-298.16,87.53h0c-83.76,114-59.25,274.32,54.75,358.08h0c114,83.76,274.32,59.25,358.08-54.75h0c67.58-91.97,64.67-214.08,1.16-301.82Z"/>
    <path class="cls-1" d="M485.42,279.13c29.27,0,57.9,5.3,85.1,15.75,3.36,1.29,5.95,3.84,7.3,7.18,1.35,3.34,1.25,6.97-.27,10.23l-62.74,134.62c-3.77,7.09-2.4,15.96,3.59,21.57.51.48,1.05.93,1.63,1.36.64.47,1.3.9,1.98,1.27,2.75,1.52,5.74,2.25,8.7,2.25,4.72,0,9.37-1.86,12.81-5.34l102.7-93.69c3.97-3.62,9.1-5.62,14.45-5.62,7.03,0,13.42,3.27,17.54,8.96,14.59,20.16,25.88,42.44,33.57,66.22,7.59,23.5,11.49,47.93,11.59,72.62.21,51.28-15.78,100.3-46.24,141.77-22.83,31.07-51.79,55.42-86.08,72.39-32.74,16.2-69.4,24.76-106.03,24.76-50.93,0-99.62-15.99-140.8-46.25-.02-.02-.05-.03-.07-.05-25.88-19.03-47.27-42.55-63.55-69.91-15.75-26.45-26.11-55.37-30.78-85.96-4.68-30.58-3.43-61.28,3.69-91.23,7.37-31,20.77-59.86,39.81-85.77,4.77-6.49,9.87-12.75,15.28-18.73l42.31,50.21c3.54,4.21,8.63,6.4,13.78,6.4,3.61,0,7.25-1.09,10.41-3.32,7.64-5.42,9.84-15.78,5.08-23.84-.17-.28-15.01-25.4-36.34-61.4,40.74-30.06,90.46-46.46,141.6-46.46M485.42,261.13c-59.43,0-118.25,20.61-165.11,60.09,25.83,43.58,44.36,74.92,44.36,74.92l-55.08-65.36c-11.1,10.48-21.42,22.09-30.78,34.82h0c-83.76,114-59.25,274.32,54.75,358.08h0c45.68,33.56,98.81,49.75,151.46,49.75,78.74,0,156.42-36.17,206.62-104.49h0c67.58-91.97,64.67-214.08,1.16-301.82-7.81-10.79-19.92-16.41-32.12-16.41-9.45,0-18.97,3.37-26.58,10.32l-103.29,94.24-.07.09.02-.05-.04.04.07-.09,63.09-135.36c7.55-16.2-.21-35.4-16.9-41.81-29.61-11.38-60.67-16.95-91.55-16.95h0Z"/>
    <path class="cls-3" d="M349.43,681.19c5.22,14.47,4.59,30.5-2.13,44.34-11.41,23.51-35.52,39.72-63.41,39.72-34.15,0-62.63-24.3-69.07-56.56-1.52-7.58-.79-15.45,1.87-22.71l44.73-122.1c7.82-21.35,38.04-21.27,45.75.12l42.26,117.2Z"/>
    <path class="cls-4" d="M335.17,712.77c5.22,14.47,4.59,30.5-2.13,44.34-11.41,23.51-35.52,39.72-63.41,39.72-34.15,0-62.63-24.3-69.07-56.56-1.52-7.58-.79-15.45,1.87-22.71l44.73-122.1c7.82-21.35,38.04-21.27,45.75.12l42.26,117.2Z"/>
  </g>
</svg>