<?xml version="1.0" encoding="UTF-8"?>
<svg id="Layer_1" xmlns="http://www.w3.org/2000/svg" viewBox="0 0 1080 1000.6">
  <g>
    <path d="M674.1,614.9c15.6-129.3-171.3-154.9-171.3-154.9-9.5-2-43.1-2.8-52.8-1.9-27.6,2.6-44.8,7.4-69.9,18.7-34.3,15.4-65.6,35.5-93.5,60.9-7,6.4-8.7,15.7-3.2,21.2,6.9,6.8,11.5-.9,16.7-3.7,2.9-1.6,5.3-4.2,8.1-6.1,17.2-12,34.4-23.9,51.8-35.7,2.7-1.8,5.8-2.9,10.3-5.2.3,5.8.9,10,.6,14.1-5.9,95.2-11.6,190.4-17.8,285.6-1.6,24.6-4.4,49.2-7.2,73.7-1.5,13.3-3.7,14.7-16.8,16.3-13.8,1.7-27.5,3.6-41.3,5.4-5.1.7-9.9,1.7-9.9,8.6,0,13.8,12.4,25.4,26.1,24.1,34.4-3.2,67.5-11,99.1-25.3,0,0,246.1-90.1,270.9-295.6ZM426.9,483.2c37.9-6.7,75.5-4.3,112.2,7.5,22.2,6.8,43.9,16.3,62.5,30.4,36.1,27.2,47.9,65,43,108.9-19.3,118.6-168.9,220.2-231.5,245.8-7.1,2.9-16.1,6.2-24.4,8.5-6.1,1.6-9.9-.4-9.4-8.1,4.2-69.7,8.2-139.3,12-209l3.6-45.6c.7-15.2,1.2-29.2,2-43.3,1.5-26.2,3.2-52.3,5.1-78.5.2-2.8.5-10.7,2.6-11.3,0,0,14.4-4,22.3-5.4Z"/>
    <path d="M951.5,717.1c4.5-3.4,8.4-7.6,11.9-12.5,3.4-4.9,6.3-10.1,8.7-15.4,3.3-7.8,6-16,8.1-24.8,2.1-8.8,3.1-17.7,3.1-26.6,6,.9,12,1.3,18.1,1.1,6.1-.1,12-1.1,17.7-2.9,5.4-1.8,9.8-4.5,13.2-8.1,3.4-3.6,5.5-6.9,6.3-9.8.7-3-.2-5-2.9-6-2.7-1-7.6.4-14.8,4.3-6,3.3-12.6,4.9-19.9,4.7-7.3-.1-14.1-1.1-20.4-2.9v-.4c-1.5-4.5-3.9-9-7.2-13.4-3.3-4.5-7.5-7-12.5-7.6-3.9-.6-7.2.4-9.8,2.9-2.7,2.5-4,5.8-4,9.6s1.8,8.7,5.4,12.8c3.6,4,7.2,7.1,10.7,9.2.6.6,1.2.9,1.8.9.6,4.5.7,8.9.2,13.2-.4,4.3-1.1,8.6-2,12.8-.6,4.2-1.8,9.3-3.6,15.2-1.8,6-4.1,11.6-6.9,17-2.8,5.4-6.4,9.8-10.7,13.2-4.3,3.4-9.3,4.7-15,3.8-5.4-.9-9.6-3.5-12.5-7.8-3-4.3-5.1-9.2-6.5-14.8-1.3-5.5-2.1-11.3-2.2-17.2-.2-6,0-11,.7-15.2.3-4.2,1-8.7,2-13.7,1-4.9,2.5-9.8,4.3-14.5,1.8-4.8,4-9.2,6.5-13.2,2.5-4,5.7-7.4,9.6-10.1,1.5-1.5,3.1-3.1,4.7-4.9,1.6-1.8,2.3-3.9,2-6.3-.3-2.7-1.6-4.5-4-5.6-2.4-1-4.8-1.3-7.2-.7-5.1.9-9.4,3.4-13,7.6-3.6,4.2-6.6,8.4-9,12.5-5.7,9.6-9.6,20-11.9,31.3-2.2,11.1-3,22.1-2.5,33.2-1.6,9.8-4,19.4-8.4,28.1-6.5,12.8-18,22.9-31.5,27.8-14.8,5.3-31.5,4.1-41.2-9.4-7.8-10.8-9.9-26.4-5.6-39,4.9-14.4,4.8-17.2,17.5-25.8,9.1-5.9,18.6-6.4,28.4-2.1h.2c5.8,2.7,15.6,3.4,15.7-5.3-.3-8.4-9.9-13.5-17.3-15.5-23.5-6.6-47.9,9-59.2,29.2-4.9,9.4-10,19.5-10.3,30.2.2,5.1.8,10.5,2,15.9-13,41-39.6,53.3-39.6,53.3-14.1,7.1-31.5-3.7-28.7-19.6,2.3-13.4,11.2-21,23.9-24.6,3.3-.9,7.1-.9,10-2.5,2.9-1.7,5-4.8,7.4-7.3-2.8-1.5-5.5-3.6-8.6-4.4-2.9-.8-6.2,0-9.3-.6-6.8-1.2-13.4-3.5-13-12,.4-8.7,6-13.5,14.4-12.9,6.3.4,12.4,3.2,18.7,4.6,2.1.5,4.4,0,6.7,0-.1-2.3.4-4.8-.5-6.7-.9-2.1-2.8-3.9-4.6-5.5-11.5-9.7-32.2-10.1-45.8-1-14.4,9.6-18.1,22.1-12.5,39.8.8,2.6.4,6.6-.9,9-2.3,4.3-4.7,8.7-7.2,12.8-6.9,11.2-7.3,25.4-.9,36.9,0,0,7.8,10.5,16.1,14.1,47,20.8,72.6-23,82.8-51.6,4.8,7.8,11.5,14.1,20.2,17.2,6.2,2.1,12.7,2.9,19.2,3.2,10,.5,20.1-.2,29.6-3,16.8-5.1,29-17.9,37.8-32.7.9-1.6,1.8-3.2,2.6-4.8,2.2,4.1,5,7.9,8.3,11.1,3.9,3.9,8.7,6.7,14.3,8.5,6.3,2.1,12.2,2.5,17.7,1.1,5.5-1.3,10.5-3.7,15-7.2Z"/>
  </g>
  <g>
    <path d="M437.3,236c15.6-129.3-171.3-154.9-171.3-154.9-9.5-2-43.1-2.8-52.8-1.9-27.6,2.6-44.8,7.4-69.9,18.7-34.3,15.4-65.6,35.5-93.5,60.9-7,6.4-8.7,15.7-3.2,21.2,6.9,6.8,11.5-.9,16.7-3.7,2.9-1.6,5.3-4.2,8.1-6.1,17.2-12,34.4-23.9,51.8-35.7,2.7-1.8,5.8-2.9,10.3-5.2.3,5.8.9,10,.6,14.1-5.9,95.2-11.6,190.4-17.8,285.6-1.6,24.6-4.4,49.2-7.2,73.7-1.5,13.3-3.7,14.7-16.8,16.3-13.8,1.7-27.5,3.6-41.3,5.4-5.1.7-9.9,1.7-9.9,8.6,0,13.8,12.4,25.4,26.1,24.1,34.4-3.2,67.5-11,99.1-25.3,0,0,246.1-90.1,270.9-295.6ZM190,104.3c37.9-6.7,75.5-4.3,112.2,7.5,22.2,6.8,43.9,16.3,62.5,30.4,36.1,27.2,47.9,65,43,108.9-19.3,118.6-168.9,220.2-231.5,245.8-7.1,2.9-16.1,6.2-24.4,8.5-6.1,1.6-9.9-.4-9.4-8.1,4.2-69.7,8.2-139.3,12-209l3.6-45.6c.7-15.2,1.2-29.2,2-43.3,1.5-26.2,3.2-52.3,5.1-78.5.2-2.8.5-10.7,2.6-11.3,0,0,14.4-4,22.3-5.4Z"/>
    <path d="M714.7,338.2c4.5-3.4,8.4-7.6,11.9-12.5,3.4-4.9,6.3-10.1,8.7-15.4,3.3-7.8,6-16,8.1-24.8,2.1-8.8,3.1-17.7,3.1-26.6,6,.9,12,1.3,18.1,1.1,6.1-.1,12-1.1,17.7-2.9,5.4-1.8,9.8-4.5,13.2-8.1,3.4-3.6,5.5-6.9,6.3-9.8.7-3-.2-5-2.9-6-2.7-1-7.6.4-14.8,4.3-6,3.3-12.6,4.9-19.9,4.7-7.3-.1-14.1-1.1-20.4-2.9v-.4c-1.5-4.5-3.9-9-7.2-13.4-3.3-4.5-7.5-7-12.5-7.6-3.9-.6-7.2.4-9.8,2.9-2.7,2.5-4,5.8-4,9.6s1.8,8.7,5.4,12.8c3.6,4,7.2,7.1,10.7,9.2.6.6,1.2.9,1.8.9.6,4.5.7,8.9.2,13.2-.4,4.3-1.1,8.6-2,12.8-.6,4.2-1.8,9.3-3.6,15.2-1.8,6-4.1,11.6-6.9,17-2.8,5.4-6.4,9.8-10.7,13.2-4.3,3.4-9.3,4.7-15,3.8-5.4-.9-9.6-3.5-12.5-7.8-3-4.3-5.1-9.2-6.5-14.8-1.3-5.5-2.1-11.3-2.2-17.2-.2-6,0-11,.7-15.2.3-4.2,1-8.7,2-13.7,1-4.9,2.5-9.8,4.3-14.5,1.8-4.8,4-9.2,6.5-13.2,2.5-4,5.7-7.4,9.6-10.1,1.5-1.5,3.1-3.1,4.7-4.9,1.6-1.8,2.3-3.9,2-6.3-.3-2.7-1.6-4.5-4-5.6-2.4-1-4.8-1.3-7.2-.7-5.1.9-9.4,3.4-13,7.6-3.6,4.2-6.6,8.4-9,12.5-5.7,9.6-9.6,20-11.9,31.3-2.2,11.1-3,22.1-2.5,33.2-1.6,9.8-4,19.4-8.4,28.1-6.5,12.8-18,22.9-31.5,27.8-14.8,5.3-31.5,4.1-41.2-9.4-7.8-10.8-9.9-26.4-5.6-39,4.9-14.4,4.8-17.2,17.5-25.8,9.1-5.9,18.6-6.4,28.4-2.1h.2c5.8,2.7,15.6,3.4,15.7-5.3-.3-8.4-9.9-13.5-17.3-15.5-23.5-6.6-47.9,9-59.2,29.2-4.9,9.4-10,19.5-10.3,30.2.2,5.1.8,10.5,2,15.9-13,41-39.6,53.3-39.6,53.3-14.1,7.1-31.5-3.7-28.7-19.6,2.3-13.4,11.2-21,23.9-24.6,3.3-.9,7.1-.9,10-2.5,2.9-1.7,5-4.8,7.4-7.3-2.8-1.5-5.5-3.6-8.6-4.4-2.9-.8-6.2,0-9.3-.6-6.8-1.2-13.4-3.5-13-12,.4-8.7,6-13.5,14.4-12.9,6.3.4,12.4,3.2,18.7,4.6,2.1.5,4.4,0,6.7,0-.1-2.3.4-4.8-.5-6.7-.9-2.1-2.8-3.9-4.6-5.5-11.5-9.7-32.2-10.1-45.8-1-14.4,9.6-18.1,22.1-12.5,39.8.8,2.6.4,6.6-.9,9-2.3,4.3-4.7,8.7-7.2,12.8-6.9,11.2-7.3,25.4-.9,36.9,0,0,7.8,10.5,16.1,14.1,47,20.8,72.6-23,82.8-51.6,4.8,7.8,11.5,14.1,20.2,17.2,6.2,2.1,12.7,2.9,19.2,3.2,10,.5,20.1-.2,29.6-3,16.8-5.1,29-17.9,37.8-32.7.9-1.6,1.8-3.2,2.6-4.8,2.2,4.1,5,7.9,8.3,11.1,3.9,3.9,8.7,6.7,14.3,8.5,6.3,2.1,12.2,2.5,17.7,1.1,5.5-1.3,10.5-3.7,15-7.2Z"/>
  </g>
</svg>