<?xml version="1.0" encoding="UTF-8"?><svg id="Layer_1" xmlns="http://www.w3.org/2000/svg" viewBox="0 0 1942.47 168.73"><defs><style>.cls-1{fill:none;}.cls-1,.cls-2{stroke-width:0px;}.cls-2{fill:#67bf5a;}</style></defs><g id="Artboard1"><rect class="cls-1" x="24.31" width="1918.16" height="168.73"/><path class="cls-2" d="M24.57,91.1s19.41-.25,43.39-9.27c23.96-9.03,138.4-54.12,106.17-17.52-32.22,36.6-53.87,20.88-90.21,21.65"/><path class="cls-2" d="M218.01,91.1s19.41-.25,43.39-9.27c23.96-9.03,138.4-54.12,106.17-17.52-32.22,36.6-53.87,20.88-90.21,21.65"/><path class="cls-2" d="M126.29,91.03s19.41.25,43.39,9.27c23.96,9.03,138.4,54.12,106.17,17.52-32.22-36.6-53.87-20.88-90.21-21.65l-59.36-5.16v.02Z"/><path class="cls-2" d="M411.42,91.1s19.41-.25,43.39-9.27c23.96-9.03,138.4-54.12,106.17-17.52-32.22,36.6-53.87,20.88-90.21,21.65"/><path class="cls-2" d="M604.86,91.1s19.41-.25,43.39-9.27c23.96-9.03,138.4-54.12,106.17-17.52-32.22,36.6-53.87,20.88-90.21,21.65"/><path class="cls-2" d="M798.27,91.1s19.41-.25,43.39-9.27c23.96-9.03,138.4-54.12,106.17-17.52-32.22,36.6-53.87,20.88-90.21,21.65"/><path class="cls-2" d="M991.71,91.1s19.41-.25,43.39-9.27c23.96-9.03,138.4-54.12,106.17-17.52-32.22,36.6-53.87,20.88-90.21,21.65"/><path class="cls-2" d="M1185.14,91.1s19.41-.25,43.39-9.27c23.96-9.03,138.4-54.12,106.17-17.52-32.22,36.6-53.87,20.88-90.21,21.65"/><path class="cls-2" d="M1378.56,91.1s19.41-.25,43.39-9.27c23.96-9.03,138.4-54.12,106.17-17.52-32.22,36.6-53.87,20.88-90.21,21.65"/><path class="cls-2" d="M1571.99,91.1s19.41-.25,43.39-9.27c23.96-9.03,138.4-54.12,106.17-17.52-32.22,36.6-53.87,20.88-90.21,21.65"/><path class="cls-2" d="M1765.41,91.1s19.41-.25,43.39-9.27c23.96-9.03,138.4-54.12,106.17-17.52-32.22,36.6-53.87,20.88-90.21,21.65"/><path class="cls-2" d="M316.84,91.03s19.41.25,43.39,9.27c23.96,9.03,138.4,54.12,106.17,17.52-32.22-36.6-53.87-20.88-90.21-21.65l-59.36-5.16v.02Z"/><path class="cls-2" d="M507.38,91.03s19.41.25,43.39,9.27c23.96,9.03,138.4,54.12,106.17,17.52-32.22-36.6-53.87-20.88-90.21-21.65l-59.36-5.16v.02Z"/><path class="cls-2" d="M697.91,91.03s19.41.25,43.39,9.27c23.96,9.03,138.4,54.12,106.17,17.52-32.22-36.6-53.87-20.88-90.21-21.65l-59.36-5.16v.02Z"/><path class="cls-2" d="M888.46,91.03s19.41.25,43.39,9.27c23.96,9.03,138.4,54.12,106.17,17.52-32.22-36.6-53.87-20.88-90.21-21.65l-59.36-5.16v.02Z"/><path class="cls-2" d="M1079.01,91.03s19.41.25,43.39,9.27c23.96,9.03,138.4,54.12,106.17,17.52-32.22-36.6-53.87-20.88-90.21-21.65l-59.36-5.16v.02Z"/><path class="cls-2" d="M1269.55,91.03s19.41.25,43.39,9.27c23.96,9.03,138.4,54.12,106.17,17.52-32.22-36.6-53.87-20.88-90.21-21.65l-59.36-5.16v.02Z"/><path class="cls-2" d="M1460.1,91.03s19.41.25,43.39,9.27c23.96,9.03,138.4,54.12,106.17,17.52-32.22-36.6-53.87-20.88-90.21-21.65l-59.36-5.16v.02Z"/><path class="cls-2" d="M1650.65,91.03s19.41.25,43.39,9.27c23.96,9.03,138.4,54.12,106.17,17.52-32.22-36.6-53.87-20.88-90.21-21.65l-59.36-5.16v.02Z"/></g></svg>