<?xml version="1.0" encoding="UTF-8"?>
<svg id="Layer_1" xmlns="http://www.w3.org/2000/svg" viewBox="0 0 1160.76 178.29">
  <defs>
    <style>
      .cls-1 {
        stroke-linecap: round;
      }

      .cls-1, .cls-2 {
        stroke: #000;
        stroke-miterlimit: 10;
        stroke-width: 11px;
      }
    </style>
  </defs>
  <path class="cls-1" d="M71.29,95.64h1009.14"/>
  <path class="cls-2" d="M84.14,95.64s10.15-.13,22.69-4.85c12.53-4.72,72.37-28.3,55.52-9.16-16.85,19.14-28.17,10.92-47.17,11.32"/>
  <path class="cls-2" d="M185.29,95.64s10.15-.13,22.69-4.85c12.53-4.72,72.37-28.3,55.52-9.16-16.85,19.14-28.17,10.92-47.17,11.32"/>
  <path class="cls-2" d="M137.33,95.6s10.15.13,22.69,4.85c12.53,4.72,72.37,28.3,55.52,9.16-16.85-19.14-28.17-10.92-47.17-11.32l-31.04-2.7Z"/>
  <path class="cls-2" d="M286.43,95.64s10.15-.13,22.69-4.85c12.53-4.72,72.37-28.3,55.52-9.16-16.85,19.14-28.17,10.92-47.17,11.32"/>
  <path class="cls-2" d="M387.58,95.64s10.15-.13,22.69-4.85c12.53-4.72,72.37-28.3,55.52-9.16-16.85,19.14-28.17,10.92-47.17,11.32"/>
  <path class="cls-2" d="M488.72,95.64s10.15-.13,22.69-4.85c12.53-4.72,72.37-28.3,55.52-9.16-16.85,19.14-28.17,10.92-47.17,11.32"/>
  <path class="cls-2" d="M589.87,95.64s10.15-.13,22.69-4.85c12.53-4.72,72.37-28.3,55.52-9.16s-28.17,10.92-47.17,11.32"/>
  <path class="cls-2" d="M691.02,95.64s10.15-.13,22.69-4.85c12.53-4.72,72.37-28.3,55.52-9.16-16.85,19.14-28.17,10.92-47.17,11.32"/>
  <path class="cls-2" d="M792.16,95.64s10.15-.13,22.69-4.85c12.53-4.72,72.37-28.3,55.52-9.16-16.85,19.14-28.17,10.92-47.17,11.32"/>
  <path class="cls-2" d="M893.31,95.64s10.15-.13,22.69-4.85c12.53-4.72,72.37-28.3,55.52-9.16-16.85,19.14-28.17,10.92-47.17,11.32"/>
  <path class="cls-2" d="M994.45,95.64s10.15-.13,22.69-4.85c12.53-4.72,72.37-28.3,55.52-9.16-16.85,19.14-28.17,10.92-47.17,11.32"/>
  <path class="cls-2" d="M236.97,95.6s10.15.13,22.69,4.85c12.53,4.72,72.37,28.3,55.52,9.16-16.85-19.14-28.17-10.92-47.17-11.32l-31.04-2.7Z"/>
  <path class="cls-2" d="M336.61,95.6s10.15.13,22.69,4.85c12.53,4.72,72.37,28.3,55.52,9.16-16.85-19.14-28.17-10.92-47.17-11.32l-31.04-2.7Z"/>
  <path class="cls-2" d="M436.24,95.6s10.15.13,22.69,4.85c12.53,4.72,72.37,28.3,55.52,9.16-16.85-19.14-28.17-10.92-47.17-11.32l-31.04-2.7Z"/>
  <path class="cls-2" d="M535.88,95.6s10.15.13,22.69,4.85c12.53,4.72,72.37,28.3,55.52,9.16-16.85-19.14-28.17-10.92-47.17-11.32l-31.04-2.7Z"/>
  <path class="cls-2" d="M635.52,95.6s10.15.13,22.69,4.85c12.53,4.72,72.37,28.3,55.52,9.16-16.85-19.14-28.17-10.92-47.17-11.32l-31.04-2.7Z"/>
  <path class="cls-2" d="M735.16,95.6s10.15.13,22.69,4.85c12.53,4.72,72.37,28.3,55.52,9.16-16.85-19.14-28.17-10.92-47.17-11.32l-31.04-2.7Z"/>
  <path class="cls-2" d="M834.8,95.6s10.15.13,22.69,4.85c12.53,4.72,72.37,28.3,55.52,9.16-16.85-19.14-28.17-10.92-47.17-11.32l-31.04-2.7Z"/>
  <path class="cls-2" d="M934.44,95.6s10.15.13,22.69,4.85c12.53,4.72,72.37,28.3,55.52,9.16-16.85-19.14-28.17-10.92-47.17-11.32l-31.04-2.7Z"/>
</svg>