<?xml version="1.0" encoding="UTF-8"?>
<svg id="Layer_1" xmlns="http://www.w3.org/2000/svg" viewBox="0 0 500 500">
  <rect x="62.54" y="258.56" width="382.53" height="11.83" transform="translate(-112.67 256.93) rotate(-45)"/>
  <rect x="62.54" y="258.56" width="382.53" height="11.83" transform="translate(261.35 -102.01) rotate(45)"/>
  <path d="M252.78,312.91h0s0,0,0,0c-19.75,19.37-.03,37.4,0,37.43h0s0,0,0,0c.03-.03,19.75-18.06,0-37.43Z"/>
  <path d="M252.37,217.07h0s0,0,0,0c19.75-19.37.03-37.4,0-37.43h0s0,0,0,0h0s-19.75,18.06,0,37.43Z"/>
  <path d="M303.16,266.43h0s0,0,0,0c19.37,19.75,37.4.03,37.43,0h0s0,0,0,0h0s-18.06-19.75-37.43,0Z"/>
  <path d="M207.33,266.84h0s0,0,0,0c-19.37-19.75-37.4-.03-37.43,0h0s0,0,0,0h0s18.06,19.75,37.43,0Z"/>
  <path d="M212.89,216.82c-19.33-19.33-3.08-37.43-19.74-54.29-16.66-16.86-31.26,2.83-49.77-15.68-18.51-18.51-3.6,6.22-3.6,6.22,0,0,18.2,16.04,19.33,17.48s53.78,46.27,53.78,46.27Z"/>
  <path d="M293.35,216.82c19.33-19.33,3.08-37.43,19.74-54.29,16.66-16.86,31.26,2.83,49.77-15.68,18.51-18.51,3.6,6.22,3.6,6.22,0,0-18.2,16.04-19.33,17.48-1.13,1.44-53.78,46.27-53.78,46.27Z"/>
  <path d="M294.5,310.68c19.33,19.33,3.08,37.43,19.74,54.29,16.66,16.86,31.26-2.83,49.77,15.68,18.51,18.51,3.6-6.22,3.6-6.22,0,0-18.2-16.04-19.33-17.48-1.13-1.44-53.78-46.27-53.78-46.27Z"/>
  <path d="M214.04,310.68c-19.33,19.33-3.08,37.43-19.74,54.29-16.66,16.86-31.26-2.83-49.77,15.68-18.51,18.51-3.6-6.22-3.6-6.22,0,0,18.2-16.04,19.33-17.48,1.13-1.44,53.78-46.27,53.78-46.27Z"/>
</svg>