<?xml version="1.0" encoding="UTF-8"?><svg id="Layer_1" xmlns="http://www.w3.org/2000/svg" viewBox="0 0 308.87 308.11"><defs><style>.cls-1{fill:#004d33;stroke-width:0px;}</style></defs><path class="cls-1" d="M0,154.1h0c79.61,81.19,153.71.14,153.84,0h0c-.12-.14-74.22-81.19-153.84,0Z"/><path class="cls-1" d="M308.87,154.04h0c-79.61-81.19-153.71-.14-153.84,0h0c.12.14,74.22,81.19,153.84,0Z"/><path class="cls-1" d="M154.38,0h0c-81.19,79.61-.14,153.71,0,153.84h0c.14-.12,81.19-74.22,0-153.84Z"/><path class="cls-1" d="M154.44,154.27h0c-81.19,79.61-.14,153.71,0,153.84h0c.14-.12,81.19-74.22,0-153.84h0Z"/><path class="cls-1" d="M263.79,45.6h0c-67.01-.66-64.11,64-64.1,64.1h0c.11,0,64.76,2.9,64.1-64.1Z"/><path class="cls-1" d="M43.43,46.42h0c-.66,67.01,64,64.11,64.1,64.1h0c0-.11,2.9-64.76-64.1-64.1h0Z"/><path class="cls-1" d="M43.04,262.19h0c67.01.66,64.11-64,64.1-64.1h0c-.11,0-64.76-2.9-64.1,64.1Z"/><path class="cls-1" d="M263.4,261.37h0c.66-67.01-64-64.11-64.1-64.1h0c0,.11-2.9,64.76,64.1,64.1Z"/></svg>