<?xml version="1.0" encoding="UTF-8"?>
<svg id="Layer_1" xmlns="http://www.w3.org/2000/svg" viewBox="0 0 1016 438.86">
  <path d="M742.77,432.03c-.12-1.52-.51-2.91-1.17-4.26-1.12-2.13-2.48-4.11-4.03-5.94-.73-.86-1.46-1.73-1.63-2.85-.25-1.69-.98-3.15-1.82-4.59,0,0,0,0,0,0-.13-.94-.65-1.83-.37-2.83,0,0,0,0,0,0,.5-.64,1.11-1.18,1.8-1.59,1.34-.8,2.19-1.97,2.81-3.36.63-1.41,1.28-2.82,2.14-4.11.52-.77.62-1.61.43-2.49-.3-1.36-.81-2.53-2.16-3.29-1.2-.67-1.19-1.05-.52-2.27.12-.22.29-.4.41-.62,1.32-2.45,2.32-5.04,3.26-7.65.47-1.45.26-2.84-.35-4.19h0c-.01-.11-.05-.22-.1-.32-.03-.5-.27-.89-.66-1.19,0,0,0,0,0,0-.95-2.15-2.15-2.82-4.36-2.5-1.58.23-2.52,1.19-3.11,2.59,0,0,0,0,0,0,0,0,0,0,0,0-1.42.75-1.67.66-2.4-.65-.48-.87-.48-1.89-.94-2.76h0c-1.84-5.01-4.86-9.01-9.88-11.15-2.12-.9-4.34-1.09-6.65-.31-2.44.82-3.79,3.46-2.1,5.54.83,1.24,2.22,1.49,3.48,1.92,1.86.64,3.34,1.78,4.67,3.08,0,0,.01.01.02.02.67.65,1.3,1.33,1.92,2.01,1.26,1.38,2.16,3.12,2.94,4.87.49,1.61.62,3.26.62,4.93,0,2.09-.51,4.01-1.51,5.84-.58,1.04-1.56,1.36-2.54,1.69-.58.2-.92-.19-1.19-.64-.3-.5-.3-1.06-.33-1.62-.08-1.66.48-3.17,1.19-4.62.56-1.14.86-2.35.72-3.59-.17-1.43-.52-2.94-2.17-3.34-1.49-.37-3.06-.51-4.49.4-2.2,1.4-3.26,3.77-4.85,5.69-.21.12-.43.22-.63.35-1.2.79-1.38.77-2.08-.44-.27-.47-.45-.99-.92-1.33-.23-1.24-.9-2.26-1.57-3.29h0c-.27-.41-.55-.82-.82-1.24-1.5-2.35-4.99-3.54-7.52-2.37-1.08.5-2.25.93-3.08,1.97-1.28,1.59-2.01,3.18-1.4,5.28.29.97-.36,1.36-1.33.92-1.13-.51-2.23-1.06-3.35-1.59-.52-.81-1.37-.96-2.23-1.1,0,0,0,0,0,0,0,0,0,0,0,0-.73-.13-1.44-.33-2.15-.54-2.64-.76-4.87.61-5.56,3.19-1.08,4.05,2.69,8.37,5.69,8.66,1.67.16,3.33.19,4.99,0,1.29-.14,2.56-.36,3.87-.37,2.15,0,3.9,1.07,5.77,1.86,2.5,1.04,3.8,3.05,4.58,5.5.15.47.25.98-.19,1.39-1.28,1.18-2.62,2.24-4.33,2.78-1.34.42-2.37-.18-3.48-.75-1.78-.9-3.39-.25-4.84.82-.98.72-1.17,2.58-.56,4.17.47,1.2,1.2,2.17,2.42,2.68.69.29,1.33.67,1.92,1.12.17.12.25.27.26.4-.05-.14-.13-.28-.26-.4-.05.49-.4.71-.77.95-1.68,1.06-2.53,2.59-2.51,4.59h0c-.02,3.07,1.38,4.68,4.33,5.03.36.04.74.1,1.07.24.99.4,1.94.17,2.87-.16.74-.27,1.45-.65,2.17-.98,1.48-.86,3.01-1.66,3.71-3.37.54-.34.8-.83.79-1.47.53-.51.57-1.2.73-1.86.6-.16.85-.64,1.07-1.15h0c.76-.48,1.35-1.12,1.83-1.87h0s0,0,0,0c2.45-1.66,5.02-2.63,7.97-1.41,1.41.59,2.98,1.02,3.57,2.68.41,1.13-.01,1.59-1.21,1.41-.43-.06-.9-.06-1.27-.24-2.24-1.09-4.19-.39-6.08.88-.58.18-.97.54-1.08,1.16-.58,2.8.62,5.45,3.22,7.13.32.46.8.72,1.28.99h0s0,0,0,0l.02.03c1.54,1.05,3.13,1.92,5.07,2.01,2.44.11,4.72.79,6.77,2.17.46.31.98.51,1.48.77,0,0,0,0,0,0,1.78,2.01,3.86,3.78,5.16,6.2.43.81,1.04,1.52,1.56,2.27h8.56c-.09-.58-.01-1.11.45-1.53,1.05-.96.89-2.03.4-3.22-.64-1.54-1.33-3.1-1.46-4.77Z"/>
  <path d="M682.71,431.67c-2.78-1.17-6.88.11-6.19,4.81.25,1.7.66,3.38,1,5.07h13.02c-.73-1.49-1.62-2.92-2.14-4.48-.96-2.86-3.15-4.34-5.69-5.41Z"/>
  <path d="M718.72,439.32c-1.01-.06-1.71-.58-2.19-1.46-.68-1.23-1.4-2.44-2.11-3.65-1.09-1.85-3.11-2.32-4.88-1.12-.41.28-.77.61-1.16.91-2.73,2.06-3.39,4.35-2.2,7.57h16.37c-.92-1.35-2.17-2.14-3.83-2.24Z"/>
  <path d="M1013.52,318.22c-1.03-.36-1.99-.3-2.93.24h0,0c-.4.03-.8.1-1.12.36h0c-.55-.71-.3-1.56-.36-2.34-.06-.77-.19-1.46-.89-1.93-1.51-1.02-3.18-1.03-4.67.07-.54.4-1,.93-1.5,1.38-.25.22-.43.66-.96.29.17-1.68.36-3.39.49-5.11.09-1.05.53-1.84,1.34-2.54,1.21-1.05,2.38-2.17,3.49-3.33,2.26-2.35,4.01-5.04,4.99-8.17.61-1.93-.06-3.67-1.54-4.28-1.81-.75-4.96-.58-5.64,1.26-.28.75-.79,1.46-1.81,1.88,0-2.01.15-3.81-.04-5.58-.26-2.5.85-4.44,2.22-6.29,1.89-2.56,3.31-5.37,4.65-8.23.23-.5.37-1.06.45-1.61.27-1.89-.5-3.4-1.97-4.51-1.33-1-2.6-.13-3.85.35-.59.23-.98.74-1.34,1.25-.24.33-.35.82-.88.86-.37-.12-.43-.45-.45-.74-.16-1.86-.6-3.65-1.18-5.41-.53-1.59-.42-3,.16-4.63,1.09-3.01,1.81-6.16,2.62-9.27.32-1.2.36-2.45.22-3.69-.24-2.1-1.52-2.62-3.14-2.78-1.98-.2-3.3.74-3.82,2.43-.47,1.51-.59,3.08-.91,5.03-.83-1.42-1.35-2.51-1.79-3.66-.7-1.84-1.33-3.73-2.2-5.49-.42-.86-.49-1.57-.32-2.46.59-3.09,1.91-5.87,3.5-8.54.84-1.41,1.36-2.91,1.65-4.5.14-.77.03-1.52-.59-2.05-1.91-1.67-6.34-2.03-7.69,1.36-.14.36-.12.91-.86.89-.52-1.92-.31-3.87-.14-5.82.06-.66.5-1.12.95-1.55.89-.85,1.74-1.77,2.79-2.44,2.16-1.37,3.94-3.18,5.89-4.81.61-.51,1.08-1.19,1.53-1.86.56-.84.58-2.06-.05-2.58-1.03-.85-2.03-1.74-3.58-1.68-2.4.09-4.06,1.27-5.43,3.1-.48.64-.8,1.43-1.74,2.16.19-3.26.53-6.13,1.19-8.96.19-.81.77-1.01,1.49-1.16,3.06-.64,5.93-1.72,8.44-3.66,1.03-.8,2.04-1.87,1.68-3.08-.41-1.36-1.33-2.78-2.92-3.11-1.25-.26-2.59-.36-3.83.21-.54-.01-.93.64-1.64.32.03-.93.82-1.64.83-2.56,0,0,0,0,0,0h0c.4-.73.79-1.46,1.19-2.2.33-.17.66-.36,1.05-.29,2.66.51,5.25-.18,7.85-.52.68-.09,1.32-.3,1.9-.66h0c1.73-.95,3.55-1.78,4.83-3.39.61-.77.96-1.63.73-2.59-.47-1.93-2.35-3.18-4.37-3-1.65.15-3.07.91-4.48,1.7-.58.32-1.11.76-2.04.65,1.72-2.37,3.38-4.49,5.92-5.9,2.76-1.53,4.89-3.78,5.99-6.84.79-2.2.36-3.6-1.4-4.88-1.61-1.17-4.31-1.31-5.73-.24-1.69,1.27-2.92,2.87-3.27,5.01-.42,2.65-1.51,5.1-2.18,7.67-.09.35-.3.69-.53.96-.83,1-1.67,2-2.54,2.96-.71.78-1.21.82-1.82-.03-1.12-1.57-2.66-2.55-4.31-3.44-1.31-.7-3.03-.66-3.82.15-.71.74-.87,2.53-.2,3.69.8,1.38,1.49,2.84,2.74,3.94.73.65,1.29,1.5,1.91,2.27.41.5.67,1.05.39,1.71-.85,1.99-1.69,3.97-2.55,5.95-.03.06-.21.05-.39.09-.83-1.29-1.92-2.38-3.06-3.42-1-.91-2.29-1.11-3.24-.57-.93.53-1.54,1.82-1.31,3.05.27,1.46.56,2.93,1.03,4.33.67,2.03,1.7,3.86,3.65,4.97.42.24.64.58.58,1.06-.24,1.9-.43,3.81-.73,5.7-.17,1.09-.54,1.22-1.49.52-1.01-.75-2.05-1.46-3.31-1.57-3.45-.31-4.98.64-4.94,4.19.02,1.88.89,3.18,2.26,4.24,2.07,1.59,3.87,3.46,5.81,5.18.7.62,1.09,1.33.91,2.29-.3,1.55-.13,3.08.12,4.61.09.56.36,1.18-.16,1.82-1.45-1.02-3.07-.97-4.67-1.08-1.05-.07-1.79.4-1.97,1.31-.34,1.68-.72,3.46.84,4.85.02.53.24.92.78,1.09h0c.32.58.84.78,1.47.77.08.07.16.11.25.14.39.19.81.23,1.24.24h0c2.41.74,4.4,2.09,5.95,4.08.04.7.09,1.4.75,1.86h0c.25.92.57,1.8,1.1,2.6h0c.03.52-.01,1.06.39,1.48.24.59.64,1.15.33,1.95-1.01-.42-1.98-.5-2.96-.43,0,0,0,0,0,0t0,0c-.42.07-.84.11-1.25.21-1.96.51-2.57,1.34-2.4,3.35.04.41.22.82.33,1.22.58,2.07,2.11,2.98,4.07,3.38t0,0c1.95.75,3.91,1.48,5.84,2.26,1.2.48,2.09,1.38,2.44,2.6.71,2.48,1.47,4.96,1.79,7.53.1.83.68,1.58.47,2.55-.89-.02-1.17-.67-1.61-1.16-1.34-1.54-2.95-2.59-5.06-2.74-.6-.04-1.1.05-1.56.4-1.09.84-1.89,3.36-1.22,4.57.81,1.46,1.26,3.09,2.25,4.44.46,1.75,1.3,3.23,2.97,4.12h0c1.53,1.4,2.7,3.05,3.41,5,.2.54.57.96,1.03,1.29.62.44.77,1.05.77,1.78,0,2.04.08,4.09.12,6.13,0,.33.27.75-.32.96-.62-.46-.76-1.21-1.07-1.86-1.17-2.4-2.8-4.24-5.66-4.53-1.63-.17-2.82.54-2.95,2.1-.2,2.29-.05,4.61,1.2,6.65.74,1.21,1.55,2.38,2.46,3.46,1.96,2.31,3.57,4.85,5.17,7.4.3.47.22.94.21,1.43-.04,2-.64,3.91-.89,5.87-.09.73-.23,1.44-.62,2.08-.59-.18-.68-.68-.78-1.05-.39-1.48-1.38-2.6-2.17-3.85-1.02-1.62-2.48-2.12-4.28-2.06-.83.03-1.45.36-1.81,1.09-.72,1.46-1.22,2.96-.92,4.65.32,1.84.89,3.53,1.76,5.22,1.29,2.52,2.21,5.24,3.19,7.9.52,1.41,1.52,2.53,2.11,3.87h0c-.74,1.82-1.47,3.63-2.21,5.45-.15.38-.19.88-.87.84-.37-.88-.75-1.78-1.11-2.68-.34-.83-.79-1.58-1.68-1.85-1.4-.43-2.25-1.26-2.54-2.56-.02-.22-.06-.45-.1-.69-.01-.78.15-1.59-.3-2.31,0,0,0,0,0,0-.16-1.48-.49-2.93-1.01-4.33-.76-2.07-2.29-2.88-4.43-2.81-1.41.05-2.28.81-3.19,1.64-.18-.16-.49-.31-.51-.49-.24-1.71-.49-3.53.23-5.09,1-2.18,2.31-4.23,3.62-6.25,1.68-2.6,2.79-5.4,2.98-8.47.17-2.74-.98-3.67-3.73-3.45-.75.06-1.29.36-1.72.93-.51.67-1.01,1.34-1.64,2.19-.14-1.14-.51-1.97-.6-2.91-.21-2.31.91-4.15,1.91-6.06,1.18-2.24,2.34-4.49,2.7-7.05.15-1.1.34-2.2.45-3.31.25-2.32-.65-3.59-3.06-4.41-1.62-.55-3.08.08-4.23,1.83-.45.68-.73,1.42-.88,2.23-.08.46.04,1.01-.46,1.35-.52-.15-.5-.64-.66-1.01-.63-1.55-1.02-3.24-1.92-4.61-1.07-1.61-.81-3-.08-4.51.3-.61.6-1.22.88-1.84.81-1.74,1.48-3.54,1.96-5.4.37-1.44.07-2.86-.2-4.22-.36-1.79-1.88-2.43-4.69-2.3-1.97.09-3.06,1.02-3.42,2.96-.12.64-.17,1.3-.28,2.14-1.54-1.42-1.96-3.21-2.8-4.76-.79-1.45-.59-2.69.21-4,1.52-2.51,2.48-5.26,3.22-8.07.37-1.38.52-2.8.29-4.24-.24-1.49-1.48-2.63-3.19-2.94-1.51-.28-2.85.28-3.65,1.55-.45.72-.88,1.47-1.46,2.45-.21-.87-.41-1.5-.51-2.14-.29-1.77-.53-3.55-.82-5.32-.27-1.72-.08-2.3,1.53-2.84,1.36-.46,2.52-1.31,3.88-1.74.43-.14.72-.43.98-.8,1.09-1.59,1.91-3.31,2.75-5.03.41-.85.58-1.76.65-2.69.07-.95-.29-1.79-1.08-2.23-1.24-.7-2.56-1.25-4.06-.57-1.26.57-2.43,1.21-3.22,2.41-.42.64-.95,1.2-1.43,1.79.04-2,.47-3.86.58-5.77.04-.71.54-1.2,1.16-1.58,2.52-1.56,4.67-3.68,7.38-4.96.5-.24.96-.58,1.4-.91,1.91-1.44,2.83-3.4,2.9-5.75.03-.88-.12-1.88-1-2.26-1.99-.86-4.04-1.69-6.09-.06-.33.26-.64.77-1.35.51.71-1.95,1.97-3.52,2.72-5.34.18-.42.57-.64,1.01-.74.5-.12.87-.44,1.29-.71,2.49-1.62,4.95-3.29,7.52-4.78,1.82-1.05,2.79-2.52,3.21-4.52.22-1.07-.14-1.82-.93-2.43-1.73-1.34-3.41-1.08-5.22.8-.3-.49,0-.97,0-1.46h0s0,0,0,0c.11-.14.23-.27.34-.41.41-.26.8-.55,1.22-.79.71-.39,1.06-.97,1.02-1.78h0s0,0,0,0c1.76-2.54,3.49-5.11,5.28-7.63,1.44-2.03,2.71-4.17,3.44-6.55,1.3-4.23-1.68-6.63-4.68-6.65-1.07,0-1.88.52-2.47,1.41-2.59,3.87-4.17,8.14-4.8,12.73-.31,2.22-.88,4.37-1.5,6.5-.11.37-.06.9-.7,1.02-.26-1.69-.13-3.36.1-5,.23-1.63-.45-2.87-1.38-4.07-.56-.72-1.39-1.04-2.12-1.47-1.17-.7-2.23-.52-3.21.42-.95.91-1.3,2.03-1.39,3.34-.2,3.13,1.1,5.94,1.83,8.86.67,2.69.9,5.35.81,8.08-.02.76-.21,1.5-.65,2.11-.77,1.07-1.22,2.29-1.8,3.45-.31.63-.5,1.38-1.27,1.72-.55-.6-.29-1.24-.32-1.83-.23-3.74-1.79-6.02-4.87-7.14-.73-.27-1.26-.17-1.89.25-2.17,1.44-2.54,3.68-2.81,5.99-.25,2.16.81,3.95,1.64,5.8,1.17,2.6,1.86,5.37,2.66,8.08.77,2.61.31,5.28-.16,7.92-.06.36-.03.8-.45,1.16-.76-2.4-1.59-4.59-2.89-6.58-.34-.52-.66-1.08-1.18-1.42-2.48-1.61-4.72-1.31-5.51,1.59-.29,1.06-.55,2.15-.44,3.29.42,4.4,2.42,7.96,5.64,10.9.9.82,2.11,1.56,2.54,2.6.73,1.75,1.54,3.52,1.78,5.44.17,1.35.4,2.7.57,4.05.08.63.29,1.3-.27,2.02-1.1-1.41-2.55-2.15-4.02-2.72-2.9-1.13-4.61.2-4.83,2.89-.33,3.96,1.08,6.81,5.75,8.62,1.97.76,3.87,1.59,5.39,3.16,1.24,1.28,1.91,2.89,2.77,4.38.86,1.5,1.66,3.04,2.44,4.59.42.83.17,1.2-.78.92-1.93-1.32-3.98-1.54-6.12-.57-1.49.68-2.1,2.15-1.49,3.64.21.51.5.99.93,1.36h0c1.84,2.27,4.25,3.85,6.93,4.76,2.43.82,4.68,1.88,6.89,3.11.38.21.41.58.6.88,1.23,1.88,1.4,4.21,2.61,6.1.44.68.14,1.14-.63,1-1.23-.23-2.47-.04-3.7-.16-1.73-.16-3.46-.05-5.09.73-2.39,1.14-2.03,3.78-.19,4.9.98.6,2.04,1.16,3.19,1.48,2.38.66,4.7,1.49,7.02,2.36,1.71.65,2.63,1.73,2.88,3.49.2,1.41.41,2.82.37,4.25-.01.41.15.88-.46,1.28-.61-.35-1.34-.68-1.97-1.15-1.54-1.14-3.3-1.3-5.12-1.27-1.01.02-1.62.54-1.95,1.43-.33.9-.34,1.83-.07,2.74.36,1.2.9,2.3,1.66,3.3,1.42,1.88,3.09,3.53,4.88,5.05.5.74,1.01,1.48,1.51,2.22h0c.23.61.45,1.22.68,1.84.01.03.01.05.03.08.01.11.04.21.07.31,1.28,1.36,1.14,2.98.87,4.64-.27,1.69-.61,3.37-.55,5.1,0,.3.14.77-.52.83-.31-.77-.71-1.54-1.68-1.69h0c-1.11-1.46-2.53-2.32-4.42-2.28-1.32.03-1.81.42-1.9,1.72-.11,1.68.07,3.34.7,4.91,1.46,3.61,2.51,7.32,3.39,11.12.92,3.99-.06,7.56-1.51,11.14-.02.05-.21.03-.45.05-.49-2.78-1.68-5.37-2.47-8.08-.07-.43-.11-.86-.2-1.27-.59-2.53-1.12-5.08-1.82-7.57-1.16-4.09-1.99-8.28-3.65-12.22-.96-2.29-2.02-4.54-4.38-5.78h0c0-.08-.03-.14-.08-.2h0c-.73-.42-1.08-.96-.6-1.8.21-.37.33-.8.53-1.18.93-1.74,1.2-3.63,1.33-5.55.1-1.49-.87-3.32-1.96-3.46-1.51-.19-3.05-.25-4.39.86-1.79,1.48-2.84,3.39-3.7,5.47-.47,1.14-.7,2.39-1.53,3.36,0,0-.02,0-.03,0-.37-.74-.75-1.48-1.12-2.22,0,0,0,0,0,0-.07-.17-.11-.37-.21-.51-1.94-2.69-4.17-5.26-4.05-8.89,0-.06-.03-.12-.05-.18-1.14-2.51-1.55-5.26-3.07-7.68-1.51-2.41-3.37-3.68-6.18-3.57-1.41.05-2.46.81-2.95,2.13-.8,2.17-.14,5.16,1.62,6.62,1.97,1.63,3.18,3.89,4.89,5.74,1.12,1.21,2.12,2.53,3.3,3.7.31.3.58.68,1.07.67,1.09-.03,1.84.63,2.6,1.27h0c-.14,1.46.74,2.61,1.45,3.68.78,1.18.59,2.21.41,3.63-1.95-1.51-3.91-2.53-5.8-3.68-1.61-.98-3.31-1.63-5.19-1.82-2.56-.26-3.85,1.23-3.17,3.73.55,2.03,2.06,3.46,3.66,4.49,1.34.86,2.94,1.56,4.58,1.91,0,0,0,0,0,0,1.48,1.06,3.18,1.63,4.86,2.26,1.42.54,2.54,1.56,2.85,2.94.44,1.98.23,4.06.06,6.09-.03.32-.13.63-.47.72-.33.09-.59-.12-.8-.36-.12-.14-.21-.31-.35-.43-3.09-2.92-6.69-4.8-10.96-5.29-1.51,1.05-1.73,2.44-1.1,4.07h0s0,0,0,0c.32.97.44,2.05,1.45,2.65,0,0,0,0,0,0,1.3,1.68,2.74,3.23,4.8,3.95,1.72.6,3.19,1.63,4.75,2.5.97.54,1.74,1.35,1.67,2.68-.08,1.55-1.46,5.4-2.6,6.88-.69-.35-.88-1.18-1.46-1.61h0c-.28-.68-.66-1.31-1.07-1.94-1.6-2.42-3.31-4.74-5.03-7.07-1.7-2.3-3.84-4.15-5.81-6.18-.2-.2-.54-.26-.82-.38h0c-.6-.88-1.42-1.44-2.36-1.98-1.35-.77-2.78-1.28-4.22-1.72-2.46-.74-4.91-.64-6.87,1.26-1.5,1.45-1.78,3.43-1.74,5.45-.27,3.45.4,6.76,1.39,10.04,0,0,0,0-.01,0,.42,3.16,1.45,6.15,2.62,9.07,1.69,4.19,3.58,8.3,5.38,12.44.2.47.52.94.28,1.59-1.28-.76-2.23-1.74-3.24-2.63-5.65-4.99-11.29-10.01-18.27-13.15-2.07-.93-4.04-2.2-6.44-2.13-.95-.7-1.9-.21-2.85-.02-1.99.4-3.62,2.15-3.59,4.07.02,1.22.11,2.44.52,3.65.81,2.41,1.75,4.75,2.86,7.04,1.73,3.57,3.72,6.99,6.08,10.18.19.6.48,1.13.99,1.51.16.44.4.83.78,1.12.17.65.62,1.09,1.11,1.49,0,0,0,0-.01,0,1.33,2.33,3.07,4.39,4.54,6.65-.44.26-.65-.03-.89-.18-2.62-1.6-5.23-3.22-7.87-4.8-1.37-.82-2.62-1.88-4.27-2.14h0c-2.19-1.38-4.61-2.19-7.06-2.96-1.37-.44-2.9-.38-4.08-1.38.36-1.27.4-2.56.38-3.87-.03-3.17.43-6.29,1.04-9.4.66-3.4,1.55-6.75,1.94-10.2,0,0-.01,0-.02-.01.88-2.23,1.76-4.46,2.64-6.68h0c1.69-3.41,2.28-7.04,2.2-10.8h0c.39-2.86-.72-5.36-2.03-7.74-.67-1.21-2.05-1.98-3.37-2.11-2.6-.26-5.23-.03-7.59,1.25-4.25,2.3-6.69,6.07-7.75,10.62-1.08,4.67-1.08,9.46-.41,14.22.32,2.27.33,4.56.39,6.83.14,5.4-.73,10.72-1.62,16.04-.55,3.29-1.3,6.54-1.53,9.9-.18,2.64-.31,5.31-1.01,7.9-.46,1.57-.64,3.32-.61,4.82,0,.05,0,.1,0,.15-.34-1.16-.75-2.31-.95-3.48-.55-2.29-.45-4.64-.81-6.96-.56-3.61-.02-7.27.09-10.9.06-2.03.46-4.08.32-6.09-.17-2.44-.55-4.88-1.34-7.26-.69-2.09-1.23-4.25-1.06-6.54.13-1.81.49-3.53,1.03-5.25,1.12-3.58,1.29-7.18-.34-10.66-.82-1.74-2.18-3.13-3.44-4.55-.77-.87-1.43-1.95-2.6-2.32-1.88-.59-3.64-1.48-5.66-1.68-2.8-.28-5.13.34-6.79,2.75-.35.51-.64,1.07-1.03,1.54-2.44,3.03-2.21,6.43-1.27,9.86.56,2.03,1.76,3.79,2.97,5.5,1.82,2.56,2.96,5.45,3.42,8.51.38,2.55.51,5.16.19,7.76-.19,1.59-.26,3.19-.16,4.8.19,3.2-.09,6.39.17,9.61.21,2.69,0,5.43.39,8.13.08,1.4-.22,2.87.74,4.11h0c.7,1.41.13,3.14,1.1,4.48-.01.87.22,1.78-.23,2.61-.8-.19-1.3-.72-2-.77,0,0,0,0,0,0-.78-.59-1.75-.53-2.64-.74-1.25-.29-1.77-.87-1.91-2.14-.07-.61-.04-1.23-.24-1.83-1.87-5.62-3.75-11.24-5.58-16.88-.44-1.37-1.05-2.62-1.88-3.8-1.24-1.76-2.39-3.57-3.32-5.55-1.77-3.75-3.24-7.62-4.84-11.43-.43-1.02-.85-2.07-1.93-2.63-.52-.84-1.18-1.47-2.25-1.44,0,0,0,0,0,0,0,0,0,0,0,0-2.6-1.12-5.11-2.39-8.1-2.35-3.47.05-5.78,1.9-7.28,4.65-1.46,2.67-.95,5.65.38,8.21,1.07,2.04,2.59,3.98,4.3,5.54,3.98,3.62,6.34,8.47,9.85,12.42.12.14.17.33.27.48.48.69.29,1.27-.24,1.82t0,0c-1.11.06-1.68-.73-2.17-1.5-.5-.77-.81-1.66-1.25-2.48-.64-1.19-1.12-2.58-2.28-3.31-3.28-2.07-6.37-.56-8.11,1.89-.8,1.12-.93,2.48-.29,3.72,2.12,4.12,5.5,6.94,9.7,8.74,1.56.67,2.99,1.53,4.27,2.53,1.87,1.46,1.84,5.36.11,7.39-.92,1.08-1.99,2.01-3.09,2.92-2.68,2.22-3.07,3.06-2.11,6.05.56,1.74,1.69,3.28,3.01,4.6h0c.09,1.86-.13,2.27-1.88,2.51-1.56.22-2.48.97-2.87,2.47-.32,1.23-1.01,2.27-1.8,3.22-.71.87-1.62,1.36-2.79.81-3.29-1.56-6.76-1.86-10.34-1.48-1.33.14-1.62-.09-1.3-1.45.4-1.67-.32-2.91-1.2-4.11-.44-.6-.87-1.21-1.22-1.86-1.21-2.21-1.59-4.41.26-6.52.37-.42.69-.87,1.02-1.33.69-.95.9-1.97.65-3.16-.2-.95-.71-1.7-1.1-2.53-.29-.6-.63-1.32.01-1.89.56-.49,1.3-.41,1.93-.12.61.28,1.2.65,1.74,1.06,1.8,1.38,3.73,1.31,5.58.3,2.73-1.5,4.63-5.22.89-7.78-2.01-1.37-4.42-1.96-6.9-1.64-2.85.37-2.85.41-3.85-2.34-.88-2.41-2.98-2.82-4.68-.93-.49.55-.98,1.13-1.57,1.57-.7.53-1.29.25-1.45-.64-.11-.67-.1-1.36-.16-2.03-.21-2.3-1.18-4.18-3.27-5.28-1.6-.84-3.29-1.05-4.96-.08-1.7.99-2.16,2.51-2.08,4.42.11,2.44,1.11,4.54,2.04,6.7,1.17,2.71,1.28,5.37-.43,7.96-1.25,1.89-1.39,3.93-.57,6.04.34.87.67,1.73,1.17,2.52.44.69.66,1.46.76,2.27.17,1.39-.4,2.4-1.61,3.08-1.38.78-2.16.53-2.77-.92-.55-1.31-.48-2.67-.25-4.03.11-.62.26-1.23,0-1.83-.9-2-2.22-3.74-3.87-5.14-2.24-1.91-4.82-3.16-7.8-3.61-1.27-.19-2.45-.32-3.63.18-1.12.48-2.16.41-3.17-.27-1.25-.84-2.67-.96-4.11-.9-2.4.1-3.62,1.66-3.16,3.99.07.36.22.71.28,1.08.2,1.28-.09,1.72-1.35,1.94-.73.12-1.48.19-2.22.22-2.14.1-3.24,1.6-2.63,3.63.47,1.57,3.26,3.83,4.87,3.84.73,0,1.46-.16,2.21-.13,3.58.13,7.02-.36,10.21-2.16.86-.48,1.82-.76,2.75-1.13.54-.21,1.1-.29,1.62,0,.6.34.87.89.67,1.57-.17.56-.66.49-1.08.38-1.16-.32-2.21.09-3.25.47-2.53.94-2.89,2.91-.88,4.65.56.48,1.15.96,1.46,1.66.35.8.08,1.7-.62,2.11-.7.41-1.22.25-1.86-.58-.3-.39-.47-.89-.95-1.12-.36-.5-.54-1.15-1.15-1.46h0s0,0,0,0c-.6-.32-1.17-.72-1.81-.94-4.29-1.48-6.09-.96-8.35,2-1.12,1.48-1.09,2.71.27,3.94,1.17,1.06,2.12,2.39,3.84,2.79.79.18,1.54.81,2.17,1.39,1.19,1.09,2.44,2.37,2.56,3.97.12,1.52.62,2.88.96,4.31h45.4c.18-.18.43-.21.65-.31.86-.29,1.76-.39,2.62-.66.46-.24.86-.6,1.34-.8.76-.46,1.44-1.06,2.33-1.26.16-.07.31-.14.47-.21.74-.28,1.44-.64,2.11-1.06,1.22-.5,2.44-1.04,3.67-1.51.75-.29,1.27-.69,1.16-1.58,0-.02-.02-.03-.03-.04.56-.15,1.17-.22,1.66-.49,1.99-1.1,4.05-2.12,5.86-3.47,1.12-.84,2.62-1.14,3.44-2.39.57-.19.87-.59,1.03-1.1.08.01.15.02.23.02,1.57-.49,1.7-2.34,2.92-3.16.6.28.71.87.95,1.35,2.5,4.83,3.6,10.07,4.33,15.4.07.53.2.95.59,1.28h29.77c.05-.86.36-1.64.65-2.44.5-1.36,1.15-2.68,1.28-4.15h0c.59-1.44.78-2.96,1.04-4.47.53-3.1,1.03-6.2,2.11-9.17.86-2.37,1.63-4.78,2-7.29h0c.45-1.95.9-3.91,1.34-5.86.2-.89.49-1.76.49-2.69h0s0,0,0,0c.21-2.02.96-3.91,1.38-5.88.09-.41.12-.86.49-1.16,2.02,2.7,4.04,5.4,6.5,7.73-.77,1.2.24,1.88.92,2.55,4.44,4.29,9.21,8.19,13.71,11.57-.61-.24-1.51-1.45-2.8-.64,0-.07-.01-.14-.05-.21-3.73-1.74-7.62-3.08-11.52-4.37-.18-.06-.36-.12-.54-.18-2.3-.76-4.61-1.07-6.97-.29-1.12.69-2.37,1.22-2.92,2.56-.78,1.71-.64,3.55-.78,5.35.41,1.34,1.2,2.39,2.26,3.33,1.03.91,2.2,1.77,2.63,3.2,5.35,4.27,11.39,7.39,17.39,10.58,1.04.21,1.96.69,2.86,1.21.32.1.63.2.97.18.41.01.82-.01,1.19.19.4.29.96.02,1.35.37h116.85v-122.75c-.75-.19-1.52-.34-2.26-.59ZM978.22,236.59h0s0,0,0,0ZM980.92,237.58c.09.03.18.07.25.16-.08-.06-.17-.11-.25-.16ZM858.8,420.29c0,.6-.06,1.16-.36,1.67-.04-.5.21-1.08.36-1.67ZM858.92,414.56c0,.3.01.6.03.9.04.55,0,1.03.37,1.41-.07.03-.14.04-.22.08-.32.66-.36,1.35-.35,2.04-.03-.07-.06-.14-.11-.21.1-.26.15-.53.1-.84.09-1.12.13-2.25.17-3.38ZM841.48,416.76c1.35.61,2.09.36,2.31-.8.04.11.07.22.05.35-.35,4.05-.27,8.07.13,11.87-.08-.46-.15-.93-.2-1.4-.41-3.39-1.22-6.75-2.29-10.01Z"/>
  <path d="M312.29,420.7c-.95-.69-1.95-1.23-3.12-1.58-1.29-.38-2.48-1.11-3.67-1.76-.91-.5-1.42-1.35-1.68-2.35-.3-1.13-.24-1.26.84-1.62.41-.13.84-.22,1.24-.39,2.57-1.05,4.06-3.79,1.07-6.38-.68-.59-.68-1.12-.34-1.78.43-.82.98-1.59,1.35-2.44.58-1.35.87-2.82-.17-4.02-1.05-1.2-2.25-2.3-4.04-2.38-.61-.02-1.21-.25-1.8-.41-1.74-.47-2.06-.87-1.97-2.69.05-.99.23-1.96.37-2.94.48-3.42-.82-5.83-3.45-6.48-.34-.29-.74-.37-1.17-.34h0s0,0,0,0h0s0,0,0,0c-3.07-.45-5.06.74-5.64,3.37,0,0,0,0,0,0-.23,3.18.19,6.18,1.52,9.17,1.08,2.43,2.84,4.42,3.78,6.92.77,2.03.71,3.64-.84,5.15-.22.21-.43.45-.6.7-.59.87-1.45,1.22-2.42,1.56-1.95.69-4.04.48-6,1.08-1.03.31-1.81.88-2.24,1.78-.55,1.16-1.03,2.41-.85,3.75.15,1.11-.07,2.21.08,3.32.16,1.18-.67,1.84-1.86,1.62-.48-.09-.93-.32-1.39-.5-.85-.34-1.68-.4-2.48.12h0c-.57.12-1.08.02-1.57-.3-1.03-.66-2.07-1.3-3.12-1.92-2.26-1.33-4.42-2.84-6.86-3.85h0c-.51-.29-1.02-.6-1.54-.87-.55-.28-1.01-.62-1.07-1.3.3-.5.32-1.06.31-1.62,0-1.11-.03-2.22-.01-3.33.05-3.19,1.1-4.67,4.1-5.83.23-.09.46-.2.7-.26,2.13-.55,2.92-2.12,3.11-4.11.05-.55.03-1.11.21-1.64.41-1.17,1.09-1.35,2.12-.62.65.46.68,1.32,1.29,1.78-.01,1.83,1.1,2.76,2.66,3.34h0s0,0,0,0t0,0s0,0,0,0c2.61,1.2,4.9.69,6.71-1.49,0,0,0,0,0,0,.83-1.31.88-2.72.25-4.07-1.08-2.29-2.76-4.09-5.07-5.15-2.55-1.17-2.59-1.1-1.9-3.86.64-2.58-.9-4.11-3.44-3.45-.77.2-1.55.43-2.34.49-.79.05-1.1-.48-.79-1.2.22-.51.46-1.02.76-1.48,2.15-3.3,1.18-7.05-1.61-8.8-1.64-1.26-2.86-1.27-4.47-.02t0,0c-.22.1-.52.14-.65.31-1.04,1.46-2.02,2.97-2.36,4.77-.25,1.33-.4,2.69-.68,4.01-.56,2.67-1.81,4.87-4.41,6.04-2.35,1.06-3.66,2.86-4.03,5.38-.11.73-.2,1.47-.26,2.21-.09,1.14-.41,2.19-1.09,3.11-.72.98-2.57,1.34-3.72.78-.79-.39-.93-1.33-.47-2.83.34-1.11,1.07-1.94,1.82-2.76.52-.57.89-1.16.95-1.95.29-3.95-.62-7.59-2.94-10.82-.64-.89-1.57-1.58-2.29-2.42-.81-.93-1.77-1.57-2.98-1.72-1.3-.17-2.14-.85-2.65-2.02-.47-1.05-1.25-1.82-2.23-2.41-1.45-1.52-2.09-1.65-4.03-.8,0,0,0,0,0,0-.9.54-1.35,1.35-1.62,2.36-.56,2.06-.98,2.22-2.85,1.34-.67-.31-1.32-.64-1.96-1.04-1.09-.68-2.55-.29-3.24.79-.74,1.16-.89,2.4-.41,3.72.65,1.78,1.68,3.03,3.4,4.09,3.26,2.01,6.55,3.65,10.43,3.93.86.06,1.71.27,2.55.45,1.84.4,2.13,1.17,1.11,2.89-.25-.08-.49-.16-.74-.24h0s0,0,0,0c-1.02-1.24-2.46-1.67-3.95-1.77-2.31-.17-3.29,1.17-2.6,3.34.26.82.6,1.64.38,2.53-.21.88-.94,1.42-1.75,1.33-.93-.11-1.11-.66-1.15-1.54-.08-1.76-.24-3.55-1.37-5.03-2.63-3.44-4.81-4.22-8.65-2.58-.9.38-1.39,1.05-1.41,2-.03,1.63.22,3.31,1.09,4.62.8,1.2,1.3,2.51,1.99,3.74-.01.85,0,1.71-.04,2.56-.06,1.34-.34,1.57-1.71,1.4-.3-.04-.59-.16-.88-.24-2.2-.58-4.51-.46-6.69-1.12.15-.57.88-.3,1.11-.75h0c.57-.35,1.02-.79,1.11-1.5.68-2.42,1.03-4.94,2.35-7.16.18-.31.19-.71.29-1.07.64-2.44.45-4.93.18-7.36-.24-2.19-.31-4.28.5-6.35h0c.23-1.26.49-2.52.68-3.79.13-.9.49-1.63,1.24-2.15.68-.08,1.35-.24,2.02-.21,1.69.06,3.11-.54,4.49-1.47,1.17-.79,2.42-1.49,3.71-2.09.86-.4,1.39-1.03,1.73-1.83.57-1.34.79-2.66,0-4.08-.65-1.17-.52-1.59.64-2.04,2.29-.89,4-2.66,6.09-3.84,2.99-1.68,3.83-4.54,3.88-7.7.02-.94-.29-1.87-1.19-2.58-1.59-1.25-3.14-1.51-4.96-.57-1.31.68-1.43.6-2.3-.39h0s0,0,0,0c.27-1.24.53-2.47.8-3.71,0,0,0,0,0,0,.53-.94.51-2,.64-3.02.4-3.17-.12-6.22-1.09-9.23-.04-.5-.27-.89-.69-1.16h0c-.16-.76-.67-1.38-1.13-1.88-1.58-1.71-3.19-3.41-5.76-3.66-1.54-.15-2.93.08-3.78,1.39-.78,1.21-.75,2.58.15,3.83.81,1.23,1.82,2.37,2.38,3.7,1.12,2.66,1.97,5.42,1.81,8.4-.07,1.29-.2,2.57-.4,3.84-.38.43-.45.94-.4,1.49,0,0,0,0,0,0v-.04c-.64.66-1.19,1.38-1.48,2.26h0c-.28.16-.33.44-.38.73-.14.24-.27.49-.41.73h0c-.62.23-.85.89-1.34,1.24-1.47,1.04-2.78,2.53-4.92,1.86-1.11-.35-1.43-.77-1.11-1.87.28-.97.91-1.73,1.62-2.43.97-.96,2.15-1.64,3.24-2.44.78-.53,1.35-1.26,1.79-2.07,1.18-2.18.49-4.07-1.79-5.05,0,0,0,0,0,0-1.28-1.38-2.88-1.26-4.39-.69-2.29.87-4.62,1.58-7,2.16-.43-.6-.32-1.27-.34-1.96-.08-2.1.18-4.19.38-6.26.32-3.22-2.41-5.53-4.8-6.24-1.23-.36-2.61-.52-3.98-.05-1.91.66-3.45,1.54-4,3.7-.24.96-1.01.93-1.58.04-.56-.88-1.17-1.74-1.62-2.68-.79-1.65-1.98-2.99-3.23-4.24-1.92-1.92-4.21-2.23-6.54-.1-2.68,2.44-2.15,8.6.44,10.35,1.38.93,2.7,1.97,4.24,2.61,2.95,1.22,5.44,2.91,6.79,5.94.07.17.22.3.33.45,1.59,2.12,1.57,4.47,1.01,6.9-.19.82-.69,1.22-1.53,1.38-2,.38-3.93.19-5.82-.53-.63-.39-.76-1.11-1.09-1.69-.98-1.72-2.97-2.68-4.87-2.3-1.37.28-2.59,2.18-2.66,4.08-.03.96.16,1.84.67,2.66.29.47.6.95.8,1.46.36.94.13,1.23-.88,1.25-4.12.08-6.31,2.95-5.27,6.9.06.24.16.47.24.7.14.63.55.97,1.18,1.05h0s0,0,0,0c1.05.82,1.8,2.07,3.3,2.24.67.08,1.34.31,2.01.31,2.42,0,4.91,0,6.92-1.58,2.41-1.9,5.18-2.24,8.05-2.03,1.13.08,2.4.25,3.29,1.09.98.93,1.83,1.99,2.73,3,.18.9.92,1.64.72,2.64-.13.61-.2,1.31-.85,1.55-.57.21-.8-.44-1.15-.76-.32-.29-.74-.51-.95-.87-1.32-2.2-3.48-2.38-5.68-2.36-.94,0-1.65.51-2.25,1.39-1.09,1.61-.97,3.29-.65,5,.58,3.1,1.85,5.82,4.43,7.85.76.6,1.73,1.02,2.28,1.84,1.34,2,2.53,4.04,3.12,6.46.83,3.43.72,6.86.65,10.32h0c-.38.85-.41,2.02-1.81,1.88-4.33-.5-8.66-.84-13.02-.73-1.65,0-3.31-.03-4.96-.02-.97,0-1.97-.11-2.89.34-.22-.22-1.4.51-.67-.66h0c.48-.15.97-.29,1.45-.44,1.13-.02,2.29.31,3.36-.33h0c1.2-.78,2.25-1.64,2.97-2.96.49-.9,1.42-1.52,2.44-1.91.52-.2,1.03-.43,1.5-.73,1.24-.79,1.62-1.9,1.27-3.35-.26-1.07-.79-1.94-1.66-2.6-1.05-.78-1.41-1.82-1.26-3.09.14-1.16.31-2.33.35-3.49.07-2.3-1.55-3.86-3.83-3.78-.43.01-.86.08-1.29.11-3.52.23-5.61,2.12-5.89,5.62-.36,4.47-2.21,8.16-5.4,11.25h0c-1.08.37-2.16.75-3.24,1.12-1.05-.4-1.69-.89-1.45-2.27.2-1.17.01-2.45-.49-3.61.03-.04.05-.09.07-.13.16-.33.04-.66-.1-.99-.04.05-.06.11-.08.16.01-.05.03-.11.08-.16.04-.11.06-.21.04-.33.37-.72.34-1.5.31-2.27,0,0,0,0,0,0,0,0,0,0,0,0,.38-.83.95-1.54,1.49-2.27.35-.29.61-.65.73-1.1,0,0,0,0,0,0,0,0,0,0,0,0,.13-.13.26-.26.39-.39.97-.98.91-1.98.07-3h0c-.97-1.63-2.47-2.52-4.21-3.13-1.4-.49-1.6-.91-1.41-2.35.2-1.52.34-3.06.67-4.56.68-3.16-.54-5.75-2.54-7.94-1.7-1.86-4.05-2.26-5.9-.48-.76.34-1.03,1.01-1.21,1.75h0c-.21.51-.4,1.03-.65,1.53-1.31,2.66-1.78,5.49-1.86,8.43-.1,3.52,1.04,6.8,1.83,10.15-.27.59-.57.29-.83.01-.81-.85-1.6-1.72-2.4-2.58-2.78-3.01-5.71-5.84-9.03-8.26h0c-1.27-.95-2.54-1.9-3.81-2.85-1.64-1.12-3.31-2.19-4.91-3.35-3.86-2.81-7.94-5.27-12.12-7.57h0c-1.35-.78-2.65-1.64-4.11-2.2-1.28-.84-2.74-1.26-4.14-1.81h0c-1.7-1.15-3.66-1.65-5.59-2.23-1.58-.7-3.17-1.37-4.81-1.92-2.32-.79-4.65-1.58-7.01-2.26h0c-1.18-.67-2.46-1.08-3.75-1.44h0c-.97-.46-1.94-.93-2.92-1.37-.38-.17-.61-.37-.4-.81.61.09,1.22.53,1.82-.02.06-.06.13-.1.19-.13-.06.04-.13.07-.19.13.46.01.9-.05,1.32-.24.07-.02.15-.05.22-.1,1.8-.35,3.6-.76,5.26-1.54,1.92-.91,2.68-4.19,1.29-5.73-1.65-1.82-3.45-3.5-5.84-4.36-1.17-1.07-2.67-1.72-4.12-2-4.22-.81-8.41-1.97-12.81-1.51-1.55.16-3.04-.49-4.41-1.23-.79-.43-.81-1.09-.07-1.59,1.12-.77,2.26-1.52,3.74-1.33.54.07,1.1-.03,1.65-.05.09-.09.18-.19.3-.2.03,0,.06,0,.08,0-.13.07-.25.15-.38.21,3.03.11,6.01-.54,9.03-.62.3,0,.6-.13.91-.19,2.42-.43,4.82-1,7.26-1.26,3.7-.4,6.74-3.48,7.24-6.67.24-1.56-.04-2.95-1.33-4-.95-.77-1.44-2.01-2.61-2.58-.22-.11-.07-.45,0-.68,2.97-.32,4.87-2.18,6.28-4.58.44-.76.76-1.68,1.03-2.54.43-1.42-.51-2.44-1.35-3.43,0,0,0,0,0,0-.3-.47-.58-.95-.9-1.4-.78-1.12-1.55-2.37-2.79-2.92-3.25-1.45-6.66-1.69-10.12-.75-1.67.22-3.13.96-4.57,1.77h0c-.1,0-.18.02-.26.09-1.27.33-2.31,1.08-3.38,1.78h0c-.71.24-1.44.43-1.9,1.1,0,0,0,0,0,0h0c-.53.17-1.07.34-1.47.77,0,0,0,0,0,0-3.38,1.9-6.56,4.14-10.01,5.91-.75.16-1.22.76-1.85,1.13h0c-.39-.02-.71.54-1.2.12.68-1.3,2.02-1.85,3.04-2.75,1.24-.83,2.42-1.71,3.31-2.93.34-.27.67-.55,1.02-.8,1.6-1.11,2.47-2.89,3.87-4.21,2.2-2.08,4.47-4.09,6.68-6.16,1.77-1.49,3.2-3.23,4.07-5.38.97-2.43.05-4.93-2.19-6.08-.46-.29-.9-.61-1.37-.86-1.32-.71-1.32-.7-.84-2.11.03-.51.55-.7.75-1.1.51-.69.83-1.46,1.06-2.28h0c.84-1.6.71-3.34.69-5.04,0-.45-.19-.98-.65-1.28l-1.56-1.44c-.26-.67-.78-.98-1.45-1.12h0c-.98-.59-1.99-.52-3-.08-.11,0-.22.03-.33.07-.43-.09-.8.06-1.13.33-.4.06-.78.15-1.11.4-3.37,2.27-6.28,5-8.41,8.5-.93,1.53-1.92,3.03-2.91,4.53-3.41,5.16-7.57,9.79-10.66,15.18h0c-1.02.84-1.9,1.81-2.65,2.9-.6.67-1.2,1.33-1.8,2-.35.12-.55.42-.76.7-.33-.25-.41-.58-.4-.98.02-1.45.31-2.81.97-4.11.61-1.21,1.14-2.47,1.73-3.69,1.74-3.62,2.6-7.6,4.55-11.14.32-.58.63-1.21.64-1.92.56-.32.93-.8,1.21-1.37,1.13-2.26,2.33-4.49,3.35-6.81,1.17-2.68,1.98-5.42,1.13-8.44-.93-3.29-3.28-4.84-6.69-4.15-1.02.2-2.05.41-3.07.61-.04-1.4.86-2.65.72-4.07.52-1.34.56-2.78.66-4.17.07-1.06-.31-2.15-.94-3.14-1.33-2.08-3.4-2.95-5.57-3.75-1.4-.51-2.77-.54-4.17-.1-2.23.7-3.58,2.36-4.6,4.32-3.16,6.06-4.96,12.64-6.74,19.17-1.33,4.86-2.8,9.75-2.96,14.86-.01.36-.18.72-.26,1.08-1.06,4.77-1.89,9.57-2.64,14.39-.53,1.9-1,3.81-1.28,5.76-.07.46-.13,1.11-.71,1.19-.71.1-.6-.64-.8-1.04-.31-.61-.54-1.26-.42-1.96.27-1.59.23-3.19.23-4.79,0-3.64.72-7.22.83-10.85h0c.22-.24.22-.56.29-.86.41-1.76.13-3.61.58-5.33.66-2.52.87-5.1,1.36-7.63.51-2.62.51-5.29.81-7.93.48-4.23.95-8.47.75-12.74-.16-3.47-1.39-6.31-4.89-7.79-1.38-.58-2.48-.43-3.63.36-1.48,1.02-2.47,2.44-3.18,4.03-1.13,2.54-2.19,5.12-3.23,7.69-.81,1.99-1.5,4.05-1.82,6.17-.25,1.65-.49,3.3-.81,4.93h0c-.65,1.24-.58,2.64-.95,3.95-.59,2.07-1.1,4.17-1.63,6.26-1.26,4.97-1.74,10.08-2.63,15.11-.64,3.64-1.03,7.34-1.47,11.01-.29,2.39-.52,4.79-.45,7.2,0,0,0-.01,0-.02,0,0,0,.01,0,.02-.24,1.53-.03,3.08-.26,4.62-.37,2.45-.13,4.91.23,7.36-.05.55-.18,1.11-.13,1.64.21,2.15.13,4.29.12,6.44h0c-.11,2.22.25,4.42.19,6.65-.05,1.78.14,3.72,1.25,5.33.17.5.26.99-.44,1.15-2.25.52-4.17,1.73-6.08,2.93h0c-.15-.02-.3-.04-.44-.06v102.47c0,.5.01.99,0,1.49-.01.37.26.1.38.19h299.93c.05-.74-.36-1.25-.83-1.76-1.92-2.07-4.03-3.94-6.25-5.67h0c-.98-.76-1.7-1.85-2.93-2.26h0c-.45-.65-1.38-.9-1.5-1.83.23-.14.46-.29.7-.43.48-.07.85-.32,1.18-.65h0c.93-.49,1.86-.97,2.78-1.47,1.35-.74,2.18-1.79,2.09-3.43-.03-.55.06-1.12.2-1.65.27-1.06.83-1.42,1.9-1.33,1.45.13,2.18.81,2.44,2.33.29,1.68.87,3.21,2.12,4.42,2.72,2.62,7.24,3.35,10.58,2.37.99-.29,1.62-1.06,1.89-2.12.75-2.96-.15-5.57-2.63-7.37ZM227.42,340.78c-.03.13-.09.24-.22.34.09-.11.16-.22.22-.34ZM1.04,390.58s0,.01.01.02c0,0,0,0-.01,0,0,0,0-.02,0-.03Z"/>
  <path d="M391.56,376.24c.62.12,1.16.44,1.74.62,2.83.86,5.51,2.25,8.51,2.55.6.27,1.2.55,1.8.82.32.48.81.77,1.32.99,3.5,1.55,7.17,2.31,10.99,2.25,1.42-.02,2.85-.29,4.11-1.01,1.71-.98,1.77-2.25.23-3.48-.48-.39-.98-.75-1.46-1.14-.58-.47-.54-.9.09-1.32.61-.41,1.37-.59,1.88-1.16.96-.33,1.7-1.04,2.56-1.54,1.1-.87,2.2-.58,3.28.02.59.33,1.15.73,1.76,1.04,1.69.88,2.92.25,3.14-1.66.28-2.45.49-4.91.7-7.37.03-.36-.01-.74-.08-1.11-.32-1.65-1.47-2.4-2.99-1.7-1.84.84-3.82.95-5.71,1.49h-.02c-.28-.39-.61-.69-1.11-.74h0c-.64-.67-1.32-1.28-2.11-1.8-.94-.62-.93-.96-.04-1.68.77-.62,1.61-1.16,2.22-1.96.77-1,.69-1.27-.49-1.69-1.88-.68-3.87-.86-5.82-1.14-3.33-.48-6.7-.57-9.9.67-2.28.88-4.75,1.62-5.93,4.11-1.22,2.6-2.95,4.86-4.6,7.18-1.41,1.98-2.88,3.85-5.36,4.66-1.14.38-1.4,1.56-.73,2.6.48.74,1.14,1.33,2.04,1.5Z"/>
  <path d="M548.12,416.39c-1.5.49-2.77,1.38-4.02,2.28-.87.62-1.62.61-2.58.24-2.7-1.04-5.21-2.6-8.16-2.94-.12-.01-.24-.07-.35-.11-4.42-1.48-8.62-1.24-12.49,1.59-1.5,1.24-3.14,2.34-4.01,4.18-1,2.12-.86,2.8.98,4.42,0,0,0,0,0,0,.62.5,1.22,1.04,1.87,1.51,3.28,2.36,6.93,2.88,10.83,2.17,3.59-.41,6.91-1.63,10.06-3.37h0,0s0,0,0,0c.96-.33,1.82-.84,2.55-1.55h0c.76-.51,1.34-.19,1.86.42.49.51.76,1.23,1.51,1.48h0s0,0,0,0h0s0,0,0,0h0c.47.63,1.13.92,1.88,1.05,1.42.23,2.12-.51,1.77-1.89-.4-1.58-1.32-2.72-2.88-3.3t0,0c-.61-.44-.47-.81.14-1.08,1.08-.48,2.13-1.03,2.99-1.84.94-.89,1.03-1.77.39-2.85-.42-.71-1.07-.81-2.32-.4Z"/>
  <path d="M619.16,352.5c.63.5,1.23,1.04,1.83,1.57.35.31.73.49,1.17.24.39-.22.35-.61.34-.98-.05-1.48-.03-2.97-.16-4.44-.07-.81.06-1.6.05-2.4-.01-.71-.21-1.39-.88-1.73-.71-.36-1.13.26-1.58.66-.59.54-1.14,1.13-1.74,1.66-1.21,1.08-1.19,1.04-2.34-.05-.66-.63-1.12-1.52-2.05-1.84-1.19-.4-2.16-1.17-3.22-1.79.4-.17.89-.36.76-.89-.15-.6-.69-.89-1.28-.86-1.56.07-3.05.38-4.32,1.38-3.18.73-6.09,1.89-8.05,4.74-1.11,1.62-1.87,3.37-.9,5.18.84,1.56,2.16,2.89,3.77,3.73,1.86.96,3.76,1.87,5.83,2.33.69,1.2,2.03,1.29,3.12,1.79.31.14.6-.06.77-.34.17-.27.26-.6.03-.85-.25-.26-.58-.44-.87-.66.47-.47,1.08-.53,1.69-.65,1.69-.32,3.13-1.08,4.23-2.44.7-.87,1.28-1.81,1.69-2.86.56-1.44.84-1.5,2.09-.51Z"/>
  <path d="M823,317.25c1.29.28,2.44.78,3.6,1.41,2.38,1.29,4.82,2.51,7.6,2.73h0c.37.27.79.38,1.22.31,1.41-.22,2.83-.22,4.25-.24.44,0,.85-.12,1.21-.4.36-.01.73-.02,1.09-.03.88.54,1.92.35,2.86.62.96.27,1.45-.29,1.85-1.09.42-.85.08-1.39-.54-1.91-.56-.47-1.21-.85-1.65-1.46-.66-.9-.62-1.19.33-1.7.43-.23.92-.36,1.27-.73h0c.81-.25,1.6-.55,2.26-1.12t0,0c.39-.24.78-.47,1.17-.71.44-.21.87-.52,1.34-.63,1.2-.26,2.45-.59,3.53.38.97.87,1.93,1.74,2.88,2.63,1.21,1.12,1.91,1.04,2.8-.33.35-.54.48-1.14.48-1.77,0-3.84.05-7.68-.03-11.52-.04-2-1.11-2.63-2.97-1.94-.35.13-.68.31-1.01.47-2.71,1.31-5.5,2.28-8.58,1.88-.89-.16-1.79-.28-2.59-.76.38-1.43,1.76-1.82,2.75-2.6.85-.67,1.58-1.4,2.13-2.29.62-1.01.27-1.96-.83-2.41-.86-.35-1.79-.49-2.72-.52-2.72-.08-5.45-.1-8.16.13-1.2.1-2.49-.12-3.59.61-.07.07-.14.11-.22.14.07-.04.15-.08.22-.14-.55-.1-1.07-.07-1.5.35h0c-1.12.27-2.24.54-3.36.81-1.22.22-2.3.75-3.31,1.46-.4.03-.76.2-.89.57-.36.96-1.18,1.38-1.99,1.85-2.12,1.24-3.87,2.82-5.03,5.05-.87,1.69-2.22,2.91-4.03,3.66-1.86.77-2.21,3.42-.66,4.73,2.59,2.19,5.5,3.79,8.84,4.51Z"/>
  <path d="M637.12,340.73c.54.1,1.08.23,1.63.34-.32.35-.24.7.12.91.74.43,1.6.61,2.42.55.73-.06.48-.63.2-1.06h0c-.04-.69.42-.99.96-1.21,1.23-.5,2.21-1.35,3.13-2.27,1.15-1.15,1.15-1.15,2.72-.5,1.22.51,1.92.14,2.02-1.22.09-1.29.08-2.6-.03-3.89-.09-1.11-.77-1.45-1.84-1.03-.4.16-.75.42-1.14.62-.36.18-.74.16-1.01-.16-1.33-1.55-3.13-2.58-4.52-4.06-.19-1.11-1.01-1.06-1.82-.97-.74.08-1.34.52-1.94.93-.65.19-1.31.36-1.95.58-3.18,1.13-5.29,4.75-4.3,7.63.87,2.54,2.6,4.3,5.36,4.83Z"/>
  <path d="M350.46,349.42c3.29.84,6.62.89,9.88-.06,1.06-.31,1.9-.27,2.79.28,1.06.65,2.17,1.18,3.41,1.39,1.16.19,1.6-.32,1.28-1.47-.12-.44-.38-.77-.7-1.07-.71-.67-1.44-1.34-2.25-2.1.9-.78,1.9-.58,2.76-.87,1.32-.45,1.78-1.99.85-2.96-.55-.58-1.32-.6-2.08-.52-1.48.16-2.94.5-4.31,1.05-1.18.48-2.18.36-3.35-.06-2.85-1.02-5.76-1.39-8.67-.15-1.72.73-2.33,1.57-2.28,3.19.06,1.76.88,2.88,2.66,3.34Z"/>
  <path d="M780.78,341.8c.93.31,1.85.7,2.79.97,2.48.72,4.79,2.01,7.45,2.07.74.37,1.48.75,2.23,1.12,1.53.99,3.13,1.86,4.84,2.52,2.33.68,4.68.96,7.09.49.34-.04.68-.08,1.02-.12,1.06,0,2.06-.29,3.05-.64,1.05-.37,1.53-1.22,1.66-2.24.12-.95-.63-1.38-1.3-1.83-.75-.5-1.73-.69-2.24-1.54h0c1.1-.65,2.35-1.06,3.37-1.85h0c.6-.39,1.2-.78,1.81-1.17,1.26-.95,2.51-.78,3.76.03.41.27.82.54,1.25.78,1.92,1.08,3.04.52,3.29-1.68.26-2.26.48-4.52.68-6.79.05-.61.04-1.24-.06-1.84-.17-1.08-.81-1.59-1.91-1.62-.57-.02-1.11.1-1.61.36-1.69.86-3.53.99-5.37,1.16h0c-.35-.5-.77-.88-1.44-.8h0c-.13-1.14-1.68-1.19-1.94-2.37,1.25-.31,2.38-.6,3.52-.85.74-.16,1.23-.51,1.31-1.33.07-.76-.21-1.31-.86-1.7-.59-.36-1.23-.6-1.91-.68-2.26-.28-4.53-.54-6.8-.8-.58-.07-1.15-.03-1.69.19-.1.02-.19.06-.29.12-.99.03-1.98.06-2.97.1l-1.78-.05c-2.19.2-4.26.73-5.99,2.17-.61.39-1.11.89-1.5,1.5-.65.42-.95,1.13-1.32,1.76-1.42,2.39-3.02,4.66-4.67,6.89-1.16,1.56-2.49,2.86-4.4,3.53-1.39.49-1.64,1.56-.8,2.8.42.62.99,1.09,1.72,1.34Z"/>
  <path d="M324.92,375.96s0,0,0,0c-.04-.18-.08-.39-.16-.63-.18-.41-.33-.84-.73-1.11h0c-.65-.65-1.21-1.25-.01-1.96.52-.31.49-.95.26-1.49-.23-.54-.72-.59-1.23-.57-1.06.03-2.06.21-2.86.99-.26.25-.53.49-.85.65-.18.05-.35.1-.54.18-2.21-.79-4.47-1.37-6.81-1.67-2.3-.29-4.27.3-6.08,1.64-1.52,1.12-1.46,2.39.1,3.51.98.7,2.1,1.07,3.22,1.37,3.08.81,6.15.82,8.85-1.11,1.23-.88,2.17-.89,3.24.04.49.64,1.13,1.01,1.93,1.09h0s0,0,0,0c0,0,0,0,0,0,0,0,0,0,0,0,.38.14.7.17.96.1.67,0,.85-.28.71-1.01,0,0,0,0,0,0Z"/>
  <path d="M650.53,373.66c-2.15.73-4.28,1.2-6.53.61-.48-.14-.96-.29-1.44-.43-.39-.73,0-1.09.6-1.46,1-.6,2.11-1.04,2.89-1.97.93-1.11.73-2.08-.6-2.62-.62-.25-1.3-.39-1.96-.51-2.8-.52-5.65-.44-8.48-.53-.61-.02-1.24.04-1.78.39-.1.03-.2.06-.3.1-.81-.06-1.58.14-2.35.37-1.14.18-2.3.29-3.23,1.1-.89.64-1.78,1.27-2.79,1.74-1.42.66-2.64,1.62-3.52,2.94-.92,1.38-2.12,2.36-3.7,2.96-1.81.69-2.15,2.42-.81,3.81,1.65,1.71,3.51,3.13,5.79,3.91,1.41.49,2.73,1.11,3.95,1.99,1.2.86,2.53,1.54,3.97,1.94.26.11.52.22.78.33.42.4.93.48,1.48.44h0c2.5.4,5.08.03,7.55.78.72.22,1.16-.1,1.53-.69.43-.67.21-1.15-.3-1.63-.31-.3-.63-.6-.9-.93-.77-.96-.66-1.32.48-1.72.58-.2,1.23-.21,1.71-.67.66-.52,1.6-.52,2.21-1.15,1.86-.66,3.38-.3,4.51,1.41.3.46.74.83,1.1,1.25.96,1.1,1.63,1.06,2.45-.13.29-.42.39-.9.44-1.4.26-2.52.57-5.03.75-7.55.25-3.38-.27-3.8-3.5-2.7Z"/>
  <path d="M587.88,409.14c-.19-.31-.41-.58-.78-.67-.79-.38-1.31-.8-.3-1.54.14-.11.25-.27.37-.4.48-.52.53-1.1.17-1.68-.35-.56-.94-.51-1.49-.43-.68.11-1.33.39-1.74.93-.68.89-1.45.97-2.42.59-.39-.15-.84-.12-1.26-.17t0,0c-3.04-.85-5.98-.84-8.77.87-1.42.87-1.51,2.41-.08,3.22,3.51,1.99,7.15,2.31,10.8.41,2.1-1.09,1.72-.8,3.14.44.57.93,1.41,1,2.22.49.89-.56.7-1.34.14-2.07,0,0,0,0,0,0Z"/>
  <path d="M440.31,429.77c-1.19-.17-1.4.73-1.64,1.57-.02.06-.03.12-.04.18-.23-.07-.53-.08-.69-.23-1.23-1.21-2.7-.96-4.15-.66-.9.19-1.79.42-2.67.68-1.06.31-2.05.07-2.72-.69-1.28-1.44-2.82-1.87-4.64-1.65-.59.02-1.11.23-1.53.66,0,0,0,0,0,0-.76.03-1.35.48-2.01.79-1.47.68-2.72,1.8-4.33,2.21.26-.58.79-.94,1.19-1.4.56-.08,1.06-.29,1.43-.74.57-.69.62-1.99.06-2.55-.71-.7-1.33-.28-1.91.23-1.72,1.01-2.32,2.87-3.21,4.45-1.41,2.5-3.7,3.31-6.26,3.7-.8.12-1.59,0-1.92-1.02-.2-.63-.8-.76-1.39-.49-1.98.9-4.2,1.04-6.19,1.9-1.12-.19-2.23.08-3.35.05h0s0,0,0,0c-1.24-.02-2.47-.09-3.71-.04-1.26.05-2.52.3-3.78-.12.22-.92.94-.99,1.47-1.19,1.57-.58,3.12-1.16,4.6-1.95.89-.47,1.87-.52,2.89-.44,1.6.13,3.18.53,4.8.39,1.52-.14,2.97-.51,3.92-1.8,1.11-1.49,2.45-1.8,4.06-1,1.9.94,4.49-.15,4.76-2.55.1-.86.58-1.42,1.45-1.73.81-.28,1.56-.76,2.06-1.51.53-.8.29-1.49-.64-1.61-2.84-.38-5.58-.33-7.74,1.98-.25-.47-.1-.96-.06-1.44.06-.73-.22-1.3-.68-1.83-.7-.8-1.23-.84-1.99-.12-.76.72-1.06,1.62-1.06,2.64t0,0c-.4,1.23-.77,2.44-1.89,3.3-1.12.86-1.18.9-2.04-.35-.17-.25-.36-.51-.6-.71-.65-.55-.68-1.13-.13-1.76.58-.68.47-1.23-.32-1.63-.8-.41-1.44-.22-1.86.59-.39.76-.28,1.56-.16,2.36.33,2.09-.43,2.88-2.62,2.72-1.3-.09-2.6-.06-3.84.43-.32.13-.65.43-1.06-.03.14-.73.7-1.23,1.21-1.75,1.12-1.16,2.24-2.31,3.37-3.45,1.28-1.29,2.4-2.75,3-4.42.51-1.44,1.2-2.48,2.54-3.22,1.1-.61,1.74-3.15,1.24-4.32-.26-.62-.74-.97-1.41-1.06-1.45-.2-2.76.15-3.63,1.35-.76,1.05-1.77,1.91-2.37,3.07-.39.75-1.06,1.22-1.83,1.5-1.35.49-2.28,1.43-3.07,2.58-.87,1.28-1.77,2.54-2.37,3.97-.45-.46-.3-.98-.18-1.51.18-.82.27-1.65.17-2.48h0,0c.01-.24.02-.49.03-.73.48-1.64.85-3.3.8-5.02-.02-.68-.01-1.36-.75-1.73,0,0,0,0,0,0h.02c-.16-.9-.14-1.8,0-2.71.12-.79.1-1.58-.14-2.34-.28-.88-.94-1.08-1.68-.52-.23.17-.36.48-.54.72,0,0,0,0,0,0-.24.19-.29.46-.35.74-.54.52-.69,1.2-.77,1.9,0,0,0,0,0,0-1.09,2.36-.58,4.79-.03,7.1.72,3.07.89,6.11.41,9.2-.24,1.55-.67,3.19-1.87,4.16-1.97,1.59-4.19,3.04-6.68,3.53-1.93.38-3.53,1.13-4.95,2.31-1.82,1.52-4.03,1.8-6.19,2.29-.71.16-1.04-.46-.81-.86.78-1.38,1.34-3.07,2.86-3.77,1.95-.89,3.98-1.76,6.25-1.35,1.04.19,1.97-.18,2.81-.72.92-.59.96-1.38.25-2.2-.59-.68-1.3-.93-2.16-.57-.54.23-1.04.67-1.79.4.11-.29.14-.56.29-.74,1.06-1.24,2.31-2.19,3.84-2.83,3.16-1.32,5.06-3.63,5.45-7.14.11-1-.05-1.77-.83-2.26-.77-.48-1.61-.11-2.24.4-.96.78-1.83,1.65-2.29,2.87-.32.87-.76,1.69-1.19,2.52-.38.73-.93,1.07-1.82.91-2.29-.4-4.12.41-5.58,2.19-.55.67-1.18,1.27-1.79,1.88-.18.18-.42.29-.67.17-.26-.12-.27-.38-.28-.63-.08-1.88.37-3.6,1.85-4.85,1.01-.85,1.55-1.85,1.77-3.14.23-1.34.59-2.64,1.69-3.63.63-.57.86-1.35.27-2.17-.59-.82-1.47-1.12-2.43-.87-1.4.37-2.31,1.41-3.23,2.39-1.77,1.9-3.48,3.81-4.23,6.44-.55,1.9-.09,3.8-.39,5.69-.37,2.38-.88,4.61-3.2,5.95-.97.56-1.76,1.38-2.31,2.37-.81,1.43-2.08,2.25-3.54,2.85-1.03.43-2.08.81-3.08,1.31-1.14.57-1.22.91-.91,2.42h59.17c.21-.13.4-.29.62-.37,3.44-1.17,6.94-2.19,10.2-3.82.27-.14.58-.22.86-.33,2.25-.91,4.34-.66,6.28.8.85.63,1.75,1.17,2.87,1.12,1.05.26,2.11.65,3.02-.32t0,0c.48-.63.08-1.41.22-2.24,2.71.65,5.31,1.16,7.94.38,2.18-.79,3.24-2.47,3.6-4.65.21-1.24-.31-2.23-1.19-2.35ZM404.86,424.25c-.04.07-.09.13-.17.17.06-.06.11-.11.17-.17ZM438.63,431.52h0Z"/>
  <path d="M870.7,426.39c-.16-.04-.24.03-.18.17.01.03.11.03.16.05.05-.03.09-.07.14-.1-.04-.04-.07-.11-.11-.12Z"/>
</svg>