<?xml version="1.0" encoding="UTF-8"?>
<svg id="Layer_1" xmlns="http://www.w3.org/2000/svg" viewBox="0 0 1235.81 1235.83">
  <defs>
    <style>
      .cls-1 {
        fill: none;
        stroke: #000;
        stroke-miterlimit: 10;
        stroke-width: 2px;
      }
    </style>
  </defs>
  <rect class="cls-1" x="1.1" y="1.03" width="1233.73" height="1233.73"/>
  <line class="cls-1" x1="1234.83" y1="31.12" x2="1.1" y2="31.12"/>
  <line class="cls-1" x1="1234.83" y1="61.21" x2="1.1" y2="61.21"/>
  <line class="cls-1" x1="1234.83" y1="91.3" x2="1.1" y2="91.3"/>
  <line class="cls-1" x1="1234.83" y1="121.39" x2="1.1" y2="121.39"/>
  <line class="cls-1" x1="1234.83" y1="151.48" x2="1.1" y2="151.48"/>
  <line class="cls-1" x1="1234.83" y1="181.58" x2="1.1" y2="181.58"/>
  <line class="cls-1" x1="1234.83" y1="211.67" x2="1.1" y2="211.67"/>
  <line class="cls-1" x1="1234.83" y1="241.76" x2="1.1" y2="241.76"/>
  <line class="cls-1" x1="1234.83" y1="271.85" x2="1.1" y2="271.85"/>
  <line class="cls-1" x1="1234.83" y1="301.94" x2="1.1" y2="301.94"/>
  <line class="cls-1" x1="1234.83" y1="332.03" x2="1.1" y2="332.03"/>
  <line class="cls-1" x1="1234.83" y1="362.12" x2="1.1" y2="362.12"/>
  <line class="cls-1" x1="1234.83" y1="392.21" x2="1.1" y2="392.21"/>
  <line class="cls-1" x1="1234.83" y1="422.3" x2="1.1" y2="422.3"/>
  <line class="cls-1" x1="1234.83" y1="452.39" x2="1.1" y2="452.39"/>
  <line class="cls-1" x1="1234.83" y1="482.49" x2="1.1" y2="482.49"/>
  <line class="cls-1" x1="1234.83" y1="512.58" x2="1.1" y2="512.58"/>
  <line class="cls-1" x1="1234.83" y1="542.67" x2="1.1" y2="542.67"/>
  <line class="cls-1" x1="1234.83" y1="572.76" x2="1.1" y2="572.76"/>
  <line class="cls-1" x1="1234.83" y1="602.85" x2="1.1" y2="602.85"/>
  <line class="cls-1" x1="1234.83" y1="632.94" x2="1.1" y2="632.94"/>
  <line class="cls-1" x1="1234.83" y1="663.03" x2="1.1" y2="663.03"/>
  <line class="cls-1" x1="1234.83" y1="693.12" x2="1.1" y2="693.12"/>
  <line class="cls-1" x1="1234.83" y1="723.21" x2="1.1" y2="723.21"/>
  <line class="cls-1" x1="1234.83" y1="753.3" x2="1.1" y2="753.3"/>
  <line class="cls-1" x1="1234.83" y1="783.4" x2="1.1" y2="783.4"/>
  <line class="cls-1" x1="1234.83" y1="813.49" x2="1.1" y2="813.49"/>
  <line class="cls-1" x1="1234.83" y1="843.58" x2="1.1" y2="843.58"/>
  <line class="cls-1" x1="1234.83" y1="873.67" x2="1.1" y2="873.67"/>
  <line class="cls-1" x1="1234.83" y1="903.76" x2="1.1" y2="903.76"/>
  <line class="cls-1" x1="1234.83" y1="933.85" x2="1.1" y2="933.85"/>
  <line class="cls-1" x1="1234.83" y1="963.94" x2="1.1" y2="963.94"/>
  <line class="cls-1" x1="1234.83" y1="994.03" x2="1.1" y2="994.03"/>
  <line class="cls-1" x1="1234.83" y1="1024.12" x2="1.1" y2="1024.12"/>
  <line class="cls-1" x1="1234.83" y1="1054.21" x2="1.1" y2="1054.21"/>
  <line class="cls-1" x1="1234.83" y1="1084.31" x2="1.1" y2="1084.31"/>
  <line class="cls-1" x1="1234.83" y1="1114.4" x2="1.1" y2="1114.4"/>
  <line class="cls-1" x1="1234.83" y1="1144.49" x2="1.1" y2="1144.49"/>
  <line class="cls-1" x1="1234.83" y1="1174.58" x2="1.1" y2="1174.58"/>
  <line class="cls-1" x1="1234.83" y1="1204.67" x2="1.1" y2="1204.67"/>
  <line class="cls-1" x1="31.19" y1="1234.76" x2="31.19" y2="1.03"/>
  <line class="cls-1" x1="61.28" y1="1234.76" x2="61.28" y2="1.03"/>
  <line class="cls-1" x1="91.37" y1="1234.76" x2="91.37" y2="1.03"/>
  <line class="cls-1" x1="121.46" y1="1234.76" x2="121.46" y2="1.03"/>
  <line class="cls-1" x1="151.55" y1="1234.76" x2="151.55" y2="1.03"/>
  <line class="cls-1" x1="181.65" y1="1234.76" x2="181.65" y2="1.03"/>
  <line class="cls-1" x1="211.74" y1="1234.76" x2="211.74" y2="1.03"/>
  <line class="cls-1" x1="241.83" y1="1234.76" x2="241.83" y2="1.03"/>
  <line class="cls-1" x1="271.92" y1="1234.76" x2="271.92" y2="1.03"/>
  <line class="cls-1" x1="302.01" y1="1234.76" x2="302.01" y2="1.03"/>
  <line class="cls-1" x1="332.1" y1="1234.76" x2="332.1" y2="1.03"/>
  <line class="cls-1" x1="362.19" y1="1234.76" x2="362.19" y2="1.03"/>
  <line class="cls-1" x1="392.28" y1="1234.76" x2="392.28" y2="1.03"/>
  <line class="cls-1" x1="422.37" y1="1234.76" x2="422.37" y2="1.03"/>
  <line class="cls-1" x1="452.46" y1="1234.76" x2="452.46" y2="1.03"/>
  <line class="cls-1" x1="482.55" y1="1234.76" x2="482.55" y2="1.03"/>
  <line class="cls-1" x1="512.65" y1="1234.76" x2="512.65" y2="1.03"/>
  <line class="cls-1" x1="542.74" y1="1234.76" x2="542.74" y2="1.03"/>
  <line class="cls-1" x1="572.83" y1="1234.76" x2="572.83" y2="1.03"/>
  <line class="cls-1" x1="602.92" y1="1234.76" x2="602.92" y2="1.03"/>
  <line class="cls-1" x1="633.01" y1="1234.76" x2="633.01" y2="1.03"/>
  <line class="cls-1" x1="663.1" y1="1234.76" x2="663.1" y2="1.03"/>
  <line class="cls-1" x1="693.19" y1="1234.76" x2="693.19" y2="1.03"/>
  <line class="cls-1" x1="723.28" y1="1234.76" x2="723.28" y2="1.03"/>
  <line class="cls-1" x1="753.37" y1="1234.76" x2="753.37" y2="1.03"/>
  <line class="cls-1" x1="783.46" y1="1234.76" x2="783.46" y2="1.03"/>
  <line class="cls-1" x1="813.56" y1="1234.76" x2="813.56" y2="1.03"/>
  <line class="cls-1" x1="843.65" y1="1234.76" x2="843.65" y2="1.03"/>
  <line class="cls-1" x1="873.74" y1="1234.76" x2="873.74" y2="1.03"/>
  <line class="cls-1" x1="903.83" y1="1234.76" x2="903.83" y2="1.03"/>
  <line class="cls-1" x1="933.92" y1="1234.76" x2="933.92" y2="1.03"/>
  <line class="cls-1" x1="964.01" y1="1234.76" x2="964.01" y2="1.03"/>
  <line class="cls-1" x1="994.1" y1="1234.76" x2="994.1" y2="1.03"/>
  <line class="cls-1" x1="1024.19" y1="1234.76" x2="1024.19" y2="1.03"/>
  <line class="cls-1" x1="1054.28" y1="1234.76" x2="1054.28" y2="1.03"/>
  <line class="cls-1" x1="1084.37" y1="1234.76" x2="1084.37" y2="1.03"/>
  <line class="cls-1" x1="1114.47" y1="1234.76" x2="1114.47" y2="1.03"/>
  <line class="cls-1" x1="1144.56" y1="1234.76" x2="1144.56" y2="1.03"/>
  <line class="cls-1" x1="1174.65" y1="1234.76" x2="1174.65" y2="1.03"/>
  <line class="cls-1" x1="1204.74" y1="1234.76" x2="1204.74" y2="1.03"/>
</svg>