<?xml version="1.0" encoding="UTF-8" standalone="no"?>
<!DOCTYPE svg PUBLIC "-//W3C//DTD SVG 1.1//EN" "http://www.w3.org/Graphics/SVG/1.1/DTD/svg11.dtd">
<svg width="100%" height="100%" viewBox="0 0 1004 89" version="1.1" xmlns="http://www.w3.org/2000/svg" xmlns:xlink="http://www.w3.org/1999/xlink" xml:space="preserve" xmlns:serif="http://www.serif.com/" style="fill-rule:evenodd;clip-rule:evenodd;stroke-linejoin:round;stroke-miterlimit:2;">
    <g id="Artboard1" transform="matrix(1,0,0,1,-84.2927,-48.144)">
        <rect x="84.293" y="48.144" width="1003.04" height="88.231" style="fill:none;"/>
        <g transform="matrix(1,0,0,1,0.292714,0.143995)">
            <path d="M71.29,95.64L1080.43,95.64" style="fill:none;fill-rule:nonzero;"/>
        </g>
        <g transform="matrix(1,0,0,1,0.292714,0.143995)">
            <path d="M84.14,95.64C84.14,95.64 94.29,95.51 106.83,90.79C119.36,86.07 179.2,62.49 162.35,81.63C145.5,100.77 134.18,92.55 115.18,92.95" style="fill:rgb(103,191,90);fill-rule:nonzero;"/>
        </g>
        <g transform="matrix(1,0,0,1,0.292714,0.143995)">
            <path d="M185.29,95.64C185.29,95.64 195.44,95.51 207.98,90.79C220.51,86.07 280.35,62.49 263.5,81.63C246.65,100.77 235.33,92.55 216.33,92.95" style="fill:rgb(103,191,90);fill-rule:nonzero;"/>
        </g>
        <g transform="matrix(1,0,0,1,0.292714,0.143995)">
            <path d="M137.33,95.6C137.33,95.6 147.48,95.73 160.02,100.45C172.55,105.17 232.39,128.75 215.54,109.61C198.69,90.47 187.37,98.69 168.37,98.29L137.33,95.59L137.33,95.6Z" style="fill:rgb(103,191,90);fill-rule:nonzero;"/>
        </g>
        <g transform="matrix(1,0,0,1,0.292714,0.143995)">
            <path d="M286.43,95.64C286.43,95.64 296.58,95.51 309.12,90.79C321.65,86.07 381.49,62.49 364.64,81.63C347.79,100.77 336.47,92.55 317.47,92.95" style="fill:rgb(103,191,90);fill-rule:nonzero;"/>
        </g>
        <g transform="matrix(1,0,0,1,0.292714,0.143995)">
            <path d="M387.58,95.64C387.58,95.64 397.73,95.51 410.27,90.79C422.8,86.07 482.64,62.49 465.79,81.63C448.94,100.77 437.62,92.55 418.62,92.95" style="fill:rgb(103,191,90);fill-rule:nonzero;"/>
        </g>
        <g transform="matrix(1,0,0,1,0.292714,0.143995)">
            <path d="M488.72,95.64C488.72,95.64 498.87,95.51 511.41,90.79C523.94,86.07 583.78,62.49 566.93,81.63C550.08,100.77 538.76,92.55 519.76,92.95" style="fill:rgb(103,191,90);fill-rule:nonzero;"/>
        </g>
        <g transform="matrix(1,0,0,1,0.292714,0.143995)">
            <path d="M589.87,95.64C589.87,95.64 600.02,95.51 612.56,90.79C625.09,86.07 684.93,62.49 668.08,81.63C651.23,100.77 639.91,92.55 620.91,92.95" style="fill:rgb(103,191,90);fill-rule:nonzero;"/>
        </g>
        <g transform="matrix(1,0,0,1,0.292714,0.143995)">
            <path d="M691.02,95.64C691.02,95.64 701.17,95.51 713.71,90.79C726.24,86.07 786.08,62.49 769.23,81.63C752.38,100.77 741.06,92.55 722.06,92.95" style="fill:rgb(103,191,90);fill-rule:nonzero;"/>
        </g>
        <g transform="matrix(1,0,0,1,0.292714,0.143995)">
            <path d="M792.16,95.64C792.16,95.64 802.31,95.51 814.85,90.79C827.38,86.07 887.22,62.49 870.37,81.63C853.52,100.77 842.2,92.55 823.2,92.95" style="fill:rgb(103,191,90);fill-rule:nonzero;"/>
        </g>
        <g transform="matrix(1,0,0,1,0.292714,0.143995)">
            <path d="M893.31,95.64C893.31,95.64 903.46,95.51 916,90.79C928.53,86.07 988.37,62.49 971.52,81.63C954.67,100.77 943.35,92.55 924.35,92.95" style="fill:rgb(103,191,90);fill-rule:nonzero;"/>
        </g>
        <g transform="matrix(1,0,0,1,0.292714,0.143995)">
            <path d="M994.45,95.64C994.45,95.64 1004.6,95.51 1017.14,90.79C1029.67,86.07 1089.51,62.49 1072.66,81.63C1055.81,100.77 1044.49,92.55 1025.49,92.95" style="fill:rgb(103,191,90);fill-rule:nonzero;"/>
        </g>
        <g transform="matrix(1,0,0,1,0.292714,0.143995)">
            <path d="M236.97,95.6C236.97,95.6 247.12,95.73 259.66,100.45C272.19,105.17 332.03,128.75 315.18,109.61C298.33,90.47 287.01,98.69 268.01,98.29L236.97,95.59L236.97,95.6Z" style="fill:rgb(103,191,90);fill-rule:nonzero;"/>
        </g>
        <g transform="matrix(1,0,0,1,0.292714,0.143995)">
            <path d="M336.61,95.6C336.61,95.6 346.76,95.73 359.3,100.45C371.83,105.17 431.67,128.75 414.82,109.61C397.97,90.47 386.65,98.69 367.65,98.29L336.61,95.59L336.61,95.6Z" style="fill:rgb(103,191,90);fill-rule:nonzero;"/>
        </g>
        <g transform="matrix(1,0,0,1,0.292714,0.143995)">
            <path d="M436.24,95.6C436.24,95.6 446.39,95.73 458.93,100.45C471.46,105.17 531.3,128.75 514.45,109.61C497.6,90.47 486.28,98.69 467.28,98.29L436.24,95.59L436.24,95.6Z" style="fill:rgb(103,191,90);fill-rule:nonzero;"/>
        </g>
        <g transform="matrix(1,0,0,1,0.292714,0.143995)">
            <path d="M535.88,95.6C535.88,95.6 546.03,95.73 558.57,100.45C571.1,105.17 630.94,128.75 614.09,109.61C597.24,90.47 585.92,98.69 566.92,98.29L535.88,95.59L535.88,95.6Z" style="fill:rgb(103,191,90);fill-rule:nonzero;"/>
        </g>
        <g transform="matrix(1,0,0,1,0.292714,0.143995)">
            <path d="M635.52,95.6C635.52,95.6 645.67,95.73 658.21,100.45C670.74,105.17 730.58,128.75 713.73,109.61C696.88,90.47 685.56,98.69 666.56,98.29L635.52,95.59L635.52,95.6Z" style="fill:rgb(103,191,90);fill-rule:nonzero;"/>
        </g>
        <g transform="matrix(1,0,0,1,0.292714,0.143995)">
            <path d="M735.16,95.6C735.16,95.6 745.31,95.73 757.85,100.45C770.38,105.17 830.22,128.75 813.37,109.61C796.52,90.47 785.2,98.69 766.2,98.29L735.16,95.59L735.16,95.6Z" style="fill:rgb(103,191,90);fill-rule:nonzero;"/>
        </g>
        <g transform="matrix(1,0,0,1,0.292714,0.143995)">
            <path d="M834.8,95.6C834.8,95.6 844.95,95.73 857.49,100.45C870.02,105.17 929.86,128.75 913.01,109.61C896.16,90.47 884.84,98.69 865.84,98.29L834.8,95.59L834.8,95.6Z" style="fill:rgb(103,191,90);fill-rule:nonzero;"/>
        </g>
        <g transform="matrix(1,0,0,1,0.292714,0.143995)">
            <path d="M934.44,95.6C934.44,95.6 944.59,95.73 957.13,100.45C969.66,105.17 1029.5,128.75 1012.65,109.61C995.8,90.47 984.48,98.69 965.48,98.29L934.44,95.59L934.44,95.6Z" style="fill:rgb(103,191,90);fill-rule:nonzero;"/>
        </g>
    </g>
</svg>
