<?xml version="1.0" encoding="UTF-8"?><svg id="Layer_1" xmlns="http://www.w3.org/2000/svg" viewBox="0 0 369.59 393.03"><defs><style>.cls-1{fill:#cb9fb4;isolation:isolate;opacity:.97;stroke-width:0px;}</style></defs><path class="cls-1" d="M300.61,198.43l-10.82-4.47,10.63-4.9c27.83-12.84,50.17-36.99,66.46-71.84-11.21-3.57-22.16-6.07-32.63-7.44l-6.26-.82,2.1-5.95c3.43-9.73,6.12-20.35,8.02-31.65-37.86-1.42-69.18,7.12-93.17,25.43l-9.13,6.97.93-11.45c2.45-30.15-7.33-61.18-29.09-92.31-8.57,7.81-16.11,15.92-22.48,24.18l-3.86,5.01-4.09-4.82c-6.82-8.04-14.84-15.87-23.89-23.35-20.35,32.38-28.57,64.07-24.45,94.25l1.57,11.48-9.54-6.58c-24.87-17.15-56.6-24.17-94.39-20.9,2.4,10.97,5.53,21.26,9.33,30.66l2.35,5.82-6.18,1.13c-10.32,1.89-21.07,4.91-32.02,8.99,18.12,34.29,41.84,57.41,70.57,68.78l11.08,4.39-10.82,5.01c-27.73,12.86-50,36.98-66.25,71.74,10.53,3.35,20.83,5.76,30.7,7.18l6.16.88-2.06,5.87c-3.38,9.65-6.04,20.18-7.92,31.36,38.93,1.46,70.92-7.61,95.17-26.98l9.5-7.59-1.21,12.1c-3.09,30.82,6.63,62.56,28.9,94.42,8.28-7.55,15.61-15.39,21.84-23.35l3.83-4.89,4.07,4.69c6.55,7.54,14.17,14.92,22.71,21.96,20.53-32.67,28.72-64.63,24.34-95.06l-1.72-11.92,9.77,7.04c25.16,18.13,57.53,25.61,96.31,22.25-2.47-11.3-5.72-21.87-9.67-31.49l-2.38-5.79,6.14-1.18c9.86-1.9,20.1-4.82,30.53-8.71-17.78-33.64-40.96-56.55-68.98-68.13v-.02ZM205.53,197.93l-6.72,2.71c-.43.17-.83.34-1.22.5l1.34,3.03-2.15.38c.1.56.21,1.16.34,1.8l1.12,5.74c6.57.98,51.96,9.71,45.93,63.47-5.45-1.06-10.28-2.49-14.56-4.21-.6,4.13-1.6,8.52-3.11,13.2-48.5-19.98-36.61-61.93-33.74-70.14l-3.85-3.06c-.74-.59-1.42-1.12-2.04-1.59l-1.36,1.8-1.22-1.45c-.63.53-1.33,1.13-2.09,1.8l-3.89,3.43c2.87,7.54,16.4,49.88-32.16,71.08-1.85-5.37-3.03-10.37-3.67-15.04-4.18,1.76-8.89,3.26-14.2,4.4-7.29-54.53,39.58-63.62,44.88-64.47l.6-4c.14-.93.26-1.78.36-2.55l-1.86-.24.93-2.47c-.62-.23-1.31-.47-2.05-.72l-5.81-1.98c-5.28,6.45-35.11,38.92-77.57,7.61,3.48-4.01,6.98-7.36,10.47-10.14-3.8-2.81-7.62-6.27-11.45-10.49,46.18-35.58,78.58,7.02,78.58,7.02,0,0-.51.46-1.45,1.22l6.97-2.82c.4-.16.79-.32,1.15-.47l-1-2.34,3.64-.56c-.04-.23-.08-.46-.13-.71l-1.41-7.58c-7.2-1.11-51.73-10.16-45.74-63.44,4.72.92,8.98,2.12,12.82,3.54.56-4.52,1.63-9.35,3.3-14.54,53.9,22.2,33.21,71.56,33.21,71.56,0,0-.78-.25-2.1-.78v.06l8.07,6.16,2.12-2.9,2.47,3.1,6.26-5.27c-2.03-5.01-18.5-49.77,31.89-71.78,1.53,4.43,2.6,8.61,3.29,12.56,3.89-1.56,8.21-2.89,13.03-3.93,7.41,55.46-41.2,63.91-45.11,64.5l-1.12,8.6v.04l3.96.4-1.14,3c.11.04.22.08.33.12l7.01,2.5c3.05-3.94,33.67-41.14,78.16-8.34-3.31,3.81-6.64,7.02-9.95,9.72,3.12,2.5,6.25,5.44,9.38,8.9-41.72,32.14-72.19.48-77.69-5.94h-.05Z"/></svg>