<?xml version="1.0" encoding="UTF-8"?>
<svg id="Layer_1" xmlns="http://www.w3.org/2000/svg" viewBox="0 0 500 500">
  <g>
    <path d="M93.28,249.28h0s0,0,0,0c79.61,81.19,153.71.14,153.84,0h0s0,0,0,0h0c-.12-.14-74.22-81.19-153.84,0Z"/>
    <path d="M402.15,249.22h0s0,0,0,0c-79.61-81.19-153.71-.14-153.84,0h0s0,0,0,0h0c.12.14,74.22,81.19,153.84,0Z"/>
    <path d="M247.66,95.18h0s0,0,0,0c-81.19,79.61-.14,153.71,0,153.84h0s0,0,0,0c.14-.12,81.19-74.22,0-153.84Z"/>
    <path d="M247.72,249.45h0s0,0,0,0c-81.19,79.61-.14,153.71,0,153.84h0s0,0,0,0c.14-.12,81.19-74.22,0-153.84Z"/>
  </g>
  <path d="M357.07,140.78h0s0,0,0,0c-67.01-.66-64.11,64-64.1,64.1h0s0,0,0,0h0c.11,0,64.76,2.9,64.1-64.1Z"/>
  <path d="M136.71,141.6h0,0c-.66,67.01,64,64.11,64.1,64.1h0,0c0-.11,2.9-64.76-64.1-64.1Z"/>
  <path d="M136.32,357.37h0s0,0,0,0c67.01.66,64.11-64,64.1-64.1h0s0,0,0,0h0c-.11,0-64.76-2.9-64.1,64.1Z"/>
  <path d="M356.68,356.55h0,0c.66-67.01-64-64.11-64.1-64.1h0s0,0,0,0c0,.11-2.9,64.76,64.1,64.1Z"/>
</svg>